<svg width="24" height="24" viewBox="0 0 24 24" fill="none" xmlns="http://www.w3.org/2000/svg">
<path d="M23 12C23 18.0751 18.0751 23 12 23C5.92487 23 1 18.0751 1 12C1 5.92487 5.92487 1 12 1C18.0751 1 23 5.92487 23 12Z" stroke="#8BC34A" stroke-width="2"/>
<path d="M10.8438 16H5.58545V15.103L8.19043 12.2617C8.56641 11.8428 8.83317 11.4937 8.99072 11.2144C9.15186 10.9315 9.23242 10.6486 9.23242 10.3657C9.23242 9.99333 9.12679 9.69255 8.91553 9.46338C8.70785 9.23421 8.42676 9.11963 8.07227 9.11963C7.64974 9.11963 7.3221 9.24854 7.08936 9.50635C6.85661 9.76416 6.74023 10.1169 6.74023 10.5645H5.43506C5.43506 10.0882 5.54248 9.66032 5.75732 9.28076C5.97575 8.89762 6.28548 8.60042 6.68652 8.38916C7.09115 8.1779 7.55664 8.07227 8.08301 8.07227C8.84212 8.07227 9.4401 8.26383 9.87695 8.64697C10.3174 9.02653 10.5376 9.5529 10.5376 10.2261C10.5376 10.6164 10.4266 11.0264 10.2046 11.4561C9.98617 11.8822 9.6263 12.3674 9.125 12.9116L7.21289 14.958H10.8438V16ZM17.6824 13.2124H18.6546V14.2598H17.6824V16H16.3773V14.2598H12.9988L12.9612 13.4648L16.3343 8.17969H17.6824V13.2124ZM14.3309 13.2124H16.3773V9.94678L16.2806 10.1187L14.3309 13.2124Z" fill="black"/>
</svg>
