<svg width="41" height="41" viewBox="0 0 41 41" fill="none" xmlns="http://www.w3.org/2000/svg">
<path d="M39.5 20.5C39.5 30.9934 30.9934 39.5 20.5 39.5C10.0066 39.5 1.5 30.9934 1.5 20.5C1.5 10.0066 10.0066 1.5 20.5 1.5C30.9934 1.5 39.5 10.0066 39.5 20.5Z" stroke="#8BC34A" stroke-width="3"/>
<path d="M19.2793 25.3103H12.1089V24.0872L15.6611 20.2126C16.1738 19.6414 16.5376 19.1653 16.7524 18.7844C16.9722 18.3987 17.082 18.0129 17.082 17.6272C17.082 17.1194 16.938 16.7092 16.6499 16.3967C16.3667 16.0842 15.9834 15.928 15.5 15.928C14.9238 15.928 14.4771 16.1038 14.1597 16.4553C13.8423 16.8069 13.6836 17.2878 13.6836 17.8982H11.9038C11.9038 17.2488 12.0503 16.6653 12.3433 16.1477C12.6411 15.6252 13.0635 15.22 13.6104 14.9319C14.1621 14.6438 14.7969 14.4998 15.5146 14.4998C16.5498 14.4998 17.3652 14.761 17.9609 15.2834C18.5615 15.801 18.8618 16.5188 18.8618 17.4368C18.8618 17.969 18.7104 18.5281 18.4077 19.114C18.1099 19.6951 17.6191 20.3567 16.9355 21.0989L14.3281 23.8894H19.2793V25.3103ZM28.6048 21.509H29.9305V22.9373H28.6048V25.3103H26.825V22.9373H22.2181L22.1668 21.8533L26.7664 14.6462H28.6048V21.509ZM24.0345 21.509H26.825V17.0559L26.6932 17.2903L24.0345 21.509Z" fill="white"/>
</svg>
