<svg width="65" height="65" viewBox="0 0 65 65" fill="none" xmlns="http://www.w3.org/2000/svg">
<path d="M64.4443 30.5264L44.9453 0.980908C44.5294 0.354545 43.9487 0 43.3334 0H30.3341C29.4805 0 28.7049 0.685455 28.3539 1.74909C28.0072 2.81864 28.1502 4.06545 28.7222 4.92818L46.9169 32.5L28.7222 60.0659C28.1502 60.9345 28.0029 62.1814 28.3539 63.245C28.7049 64.3145 29.4805 65 30.3341 65H43.3334C43.9487 65 44.5294 64.6395 44.9453 64.025L64.4443 34.4795C65.1852 33.3568 65.1852 31.6432 64.4443 30.5264Z" fill="#39BC56"/>
<path d="M36.2791 30.5264L16.7802 0.980908C16.3642 0.354545 15.7836 0 15.1683 0H2.16899C1.31537 0 0.539741 0.685455 0.18876 1.74909C-0.157888 2.81864 -0.014896 4.06545 0.557073 4.92818L18.7518 32.5L0.557073 60.0659C-0.014896 60.9345 -0.162221 62.1814 0.18876 63.245C0.539741 64.3145 1.31537 65 2.16899 65H15.1683C15.7836 65 16.3642 64.6395 16.7802 64.025L36.2791 34.4795C37.0201 33.3568 37.0201 31.6432 36.2791 30.5264Z" fill="#39BC56"/>
</svg>
