<svg width="52" height="52" viewBox="0 0 52 52" fill="none" xmlns="http://www.w3.org/2000/svg">
<path d="M26 0C11.6633 0 0 11.6633 0 26C0 40.3367 11.6633 52 26 52C40.3367 52 52 40.3367 52 26C52 11.6633 40.3367 0 26 0ZM26 46.8852C14.4833 46.8852 5.11475 37.5167 5.11475 26C5.11475 14.4833 14.4833 5.11475 26 5.11475C37.5167 5.11475 46.8852 14.4833 46.8852 26C46.8852 37.5167 37.5167 46.8852 26 46.8852ZM22.5902 10.5125H29.4098V32.3934H22.5902V10.5125ZM22.5902 36.0897H29.4098V41.4875H22.5902V36.0897Z" fill="#FF0000"/>
</svg>
