<svg width="115" height="116" viewBox="0 0 115 116" fill="none" xmlns="http://www.w3.org/2000/svg">
<path d="M102.94 56.1839C102.575 55.8309 102.088 55.6319 101.58 55.6281H63.2495V44.129H101.58C102.088 44.1253 102.575 43.9263 102.94 43.5732L114.439 32.0742C114.799 31.7123 115 31.2232 115 30.7135C115 30.2037 114.799 29.7146 114.439 29.3528L102.94 17.8537C102.575 17.5007 102.088 17.3017 101.58 17.2979H63.2495V12.7366C64.2253 11.6302 64.8612 10.2656 65.0807 8.80672C65.3002 7.34783 65.0941 5.85659 64.4871 4.51194C63.8801 3.16728 62.898 2.02634 61.6586 1.22602C60.4193 0.425702 58.9753 0 57.5 0C56.0247 0 54.5807 0.425702 53.3414 1.22602C52.102 2.02634 51.1199 3.16728 50.5129 4.51194C49.9059 5.85659 49.6998 7.34783 49.9193 8.80672C50.1388 10.2656 50.7747 11.6302 51.7505 12.7366V36.463H13.4203C12.9122 36.4668 12.425 36.6658 12.0596 37.0188L0.560547 48.5178C0.201485 48.8797 0 49.3688 0 49.8786C0 50.3883 0.201485 50.8774 0.560547 51.2393L12.0596 62.7383C12.425 63.0913 12.9122 63.2903 13.4203 63.2941H51.7505V100.264C45.886 101.356 42.1679 104.039 42.1679 107.374C42.1679 112.414 49.8723 115.04 57.5 115.04C65.1277 115.04 72.8321 112.414 72.8321 107.374C72.8321 104.039 69.114 101.356 63.2495 100.264V82.4592H101.58C102.088 82.4554 102.575 82.2564 102.94 81.9034L114.439 70.4044C114.799 70.0425 115 69.5534 115 69.0436C115 68.5339 114.799 68.0448 114.439 67.6829L102.94 56.1839ZM63.2495 21.1309H100.794L110.376 30.7135L100.794 40.296H63.2495V21.1309ZM57.5 3.88237C58.2581 3.88237 58.9992 4.10717 59.6295 4.52835C60.2598 4.94953 60.7511 5.54816 61.0412 6.24855C61.3314 6.94894 61.4073 7.71964 61.2594 8.46317C61.1115 9.2067 60.7464 9.88968 60.2104 10.4257C59.6743 10.9618 58.9913 11.3269 58.2478 11.4747C57.5043 11.6226 56.7336 11.5467 56.0332 11.2566C55.3328 10.9665 54.7341 10.4752 54.313 9.84489C53.8918 9.21456 53.667 8.47348 53.667 7.71538C53.67 6.69974 54.0748 5.72656 54.793 5.00838C55.5112 4.29021 56.4844 3.8854 57.5 3.88237ZM59.4165 15.1131V103.541C59.4165 104.049 59.2146 104.537 58.8552 104.896C58.4958 105.255 58.0083 105.457 57.5 105.457C56.9917 105.457 56.5042 105.255 56.1448 104.896C55.7854 104.537 55.5835 104.049 55.5835 103.541V15.1131C56.8361 15.4709 58.1639 15.4709 59.4165 15.1131ZM14.2061 59.4611L4.62354 49.8786L14.2061 40.296H51.7505V59.4611H14.2061ZM68.9991 107.374C68.9991 108.735 64.6294 111.207 57.5 111.207C50.3706 111.207 46.001 108.735 46.001 107.374C46.001 106.473 48.0516 104.959 51.808 104.135C51.95 105.546 52.6109 106.854 53.6627 107.805C54.7144 108.756 56.0819 109.283 57.5 109.283C58.9181 109.283 60.2856 108.756 61.3373 107.805C62.3891 106.854 63.05 105.546 63.192 104.135C66.9484 104.959 68.9991 106.473 68.9991 107.374ZM100.794 78.6262H63.2495V59.4611H100.794L110.376 69.0436L100.794 78.6262Z" fill="#1F7996"/>
</svg>
