<svg width="13" height="18" viewBox="0 0 13 18" fill="none" xmlns="http://www.w3.org/2000/svg">
<path d="M12.9762 8.24695C12.9278 8.13109 12.8151 8.05548 12.6899 8.05548H9.29482V0.309836C9.29482 0.138812 9.15601 0 8.98499 0H4.02775C3.85673 0 3.71792 0.138812 3.71792 0.309836V8.05551H0.309833C0.184673 8.05551 0.0718867 8.13112 0.0235537 8.24638C-0.0241692 8.36224 0.00185611 8.49548 0.0904762 8.5841L6.27152 14.7856C6.32976 14.8438 6.40847 14.8767 6.49087 14.8767C6.57328 14.8767 6.65199 14.8438 6.71023 14.7862L12.9093 8.58471C12.9979 8.49606 13.0245 8.36285 12.9762 8.24695Z" fill="white"/>
<rect y="17" width="13" height="1" rx="0.5" fill="white"/>
</svg>
