<svg width="28" height="28" viewBox="0 0 28 28" fill="none" xmlns="http://www.w3.org/2000/svg">
<path d="M25.0469 20.8421V8.95059C25.0469 8.77563 24.9631 8.61115 24.8217 8.50818L23.4716 7.52658L24.5346 6.86221C24.6871 6.76694 24.7831 6.60266 24.7912 6.423C24.7991 6.24335 24.7183 6.07117 24.575 5.96265L23.5885 5.21518V4.86719H24.5C24.8021 4.86719 25.0469 4.62238 25.0469 4.32031V3.22656C25.0469 1.44751 23.5994 0 21.8203 0H3.17188C3.16632 0 3.16119 0.000640872 3.15585 0.000854492C3.14325 0.000640872 3.13107 0 3.11847 0C2.25735 0 1.45734 0.425323 0.865814 1.19778C0.307404 1.92688 0 2.88818 0 3.9046C0 5.73193 1.19608 7.21875 2.66623 7.21875H5.69177V15.8867C5.69177 16.0721 5.78555 16.2448 5.94107 16.3456L7.01324 17.0407L5.87421 18.0584C5.75821 18.162 5.69177 18.3105 5.69177 18.4662V23.2057C5.69177 23.2351 5.69476 23.264 5.69925 23.2922C5.69476 23.3206 5.69177 23.3494 5.69177 23.3789C5.69177 24.7702 6.05109 25.9413 6.73062 26.7655C7.38708 27.5614 8.32062 28 9.35904 28H24.3906C26.381 28 28 26.381 28 24.3906C28 22.6246 26.7247 21.1517 25.0469 20.8421ZM4.48843 6.125C4.64951 5.82144 4.74072 5.4711 4.74072 5.0947C4.74072 3.83389 3.92404 2.95312 2.75446 2.95312C2.45239 2.95312 2.20758 3.19794 2.20758 3.5C2.20758 3.80206 2.45239 4.04688 2.75446 4.04688C3.31329 4.04688 3.64697 4.43866 3.64697 5.0947C3.64697 5.76398 3.14154 6.125 2.66623 6.125C1.81387 6.125 1.09375 5.10815 1.09375 3.9046C1.09375 2.35477 2.00208 1.09375 3.11847 1.09375C3.89178 1.09375 4.49634 1.33408 4.91483 1.80789C5.43051 2.3913 5.69177 3.33786 5.69177 4.62109V6.125H4.48843ZM7.57443 26.0695C7.05832 25.4436 6.78552 24.5132 6.78552 23.3789C6.78552 23.3494 6.78253 23.3206 6.77805 23.2922C6.78253 23.264 6.78552 23.2351 6.78552 23.2057V18.7108L8.27576 17.3791C8.40286 17.2657 8.46994 17.0992 8.4567 16.9292C8.44366 16.7594 8.35202 16.6051 8.20911 16.5124L6.78552 15.5896V4.62109C6.78552 3.06955 6.43454 1.88309 5.74304 1.09375H21.8203C22.9963 1.09375 23.9531 2.05057 23.9531 3.22656V3.77344H23.0416C22.7397 3.77344 22.4947 4.01825 22.4947 4.32031V5.48691C22.4947 5.65823 22.575 5.81952 22.7115 5.92291L23.2821 6.35529L22.205 7.02841C22.0508 7.12476 21.9547 7.29138 21.9483 7.47296C21.9419 7.65454 22.0262 7.82758 22.1732 7.93439L23.9531 9.22894V20.7812H10.0497C10.0228 20.7812 9.99628 20.7838 9.97021 20.7877C9.91766 20.7838 9.86469 20.7812 9.81107 20.7812C8.64789 20.7812 7.73657 21.7144 7.73657 22.9053C7.73657 24.1663 8.55325 25.0469 9.72284 25.0469C10.0249 25.0469 10.2697 24.8021 10.2697 24.5C10.2697 24.1979 10.0249 23.9531 9.72284 23.9531C9.164 23.9531 8.83032 23.5613 8.83032 22.9053C8.83032 22.236 9.33575 21.875 9.81107 21.875C10.6634 21.875 11.3835 22.8918 11.3835 24.0954C11.3835 25.6452 10.4754 26.9062 9.35904 26.9062C8.64297 26.9062 8.02582 26.617 7.57443 26.0695ZM24.3906 26.9062H11.5277C11.5559 26.8721 11.5841 26.8379 11.6115 26.8022C12.1357 26.1178 12.4386 25.2285 12.4739 24.2812H21C21.3021 24.2812 21.5469 24.0364 21.5469 23.7344C21.5469 23.4323 21.3021 23.1875 21 23.1875H12.3748C12.2615 22.6936 12.0586 22.2461 11.7886 21.875H24.3906C25.7777 21.875 26.9062 23.0036 26.9062 24.3906C26.9062 25.7777 25.7777 26.9062 24.3906 26.9062Z" fill="#4ED16B"/>
<path d="M10.3555 5.35938C10.4992 5.35938 10.6398 5.30084 10.7421 5.19916C10.8438 5.09747 10.9023 4.95627 10.9023 4.8125C10.9023 4.66873 10.8438 4.52753 10.7421 4.42584C10.6398 4.32416 10.4992 4.26562 10.3555 4.26562C10.2111 4.26562 10.0705 4.32416 9.96881 4.42584C9.86713 4.52753 9.80859 4.66873 9.80859 4.8125C9.80859 4.95627 9.86713 5.09747 9.96881 5.19916C10.0705 5.30084 10.2111 5.35938 10.3555 5.35938Z" fill="#4ED16B"/>
<path d="M12.6875 5.35938H20.5819C20.884 5.35938 21.1288 5.11456 21.1288 4.8125C21.1288 4.51044 20.884 4.26562 20.5819 4.26562H12.6875C12.3854 4.26562 12.1406 4.51044 12.1406 4.8125C12.1406 5.11456 12.3854 5.35938 12.6875 5.35938Z" fill="#4ED16B"/>
<path d="M10.3555 8.42188H20.582C20.8841 8.42188 21.1289 8.17706 21.1289 7.875C21.1289 7.57294 20.8841 7.32812 20.582 7.32812H10.3555C10.0536 7.32812 9.80859 7.57294 9.80859 7.875C9.80859 8.17706 10.0536 8.42188 10.3555 8.42188Z" fill="#4ED16B"/>
<path d="M10.3555 11.4844H20.582C20.8841 11.4844 21.1289 11.2396 21.1289 10.9375C21.1289 10.6354 20.8841 10.3906 20.582 10.3906H10.3555C10.0536 10.3906 9.80859 10.6354 9.80859 10.9375C9.80859 11.2396 10.0536 11.4844 10.3555 11.4844Z" fill="#4ED16B"/>
<path d="M10.3555 14.5469H20.582C20.8841 14.5469 21.1289 14.3021 21.1289 14C21.1289 13.6979 20.8841 13.4531 20.582 13.4531H10.3555C10.0536 13.4531 9.80859 13.6979 9.80859 14C9.80859 14.3021 10.0536 14.5469 10.3555 14.5469Z" fill="#4ED16B"/>
<path d="M10.3555 17.6094H20.582C20.8841 17.6094 21.1289 17.3646 21.1289 17.0625C21.1289 16.7604 20.8841 16.5156 20.582 16.5156H10.3555C10.0536 16.5156 9.80859 16.7604 9.80859 17.0625C9.80859 17.3646 10.0536 17.6094 10.3555 17.6094Z" fill="#4ED16B"/>
<path d="M23.1257 23.1875C22.9818 23.1875 22.8408 23.246 22.7391 23.3477C22.6374 23.4494 22.5789 23.5906 22.5789 23.7344C22.5789 23.8781 22.6372 24.0193 22.7391 24.121C22.8408 24.2227 22.9818 24.2812 23.1257 24.2812C23.2695 24.2812 23.4105 24.2227 23.5122 24.121C23.6141 24.0193 23.6726 23.8781 23.6726 23.7344C23.6726 23.5906 23.6141 23.4494 23.5122 23.3477C23.4105 23.246 23.2695 23.1875 23.1257 23.1875Z" fill="#4ED16B"/>
</svg>
