<svg width="66" height="43" viewBox="0 0 66 43" fill="none" xmlns="http://www.w3.org/2000/svg">
<path d="M5.89453 22.5137H2.51953V26H0.761719V17.4688H6.31641V18.8926H2.51953V21.0957H5.89453V22.5137ZM14.562 26H8.7143V24.8398L11.4741 21.8984C11.853 21.4844 12.1323 21.123 12.312 20.8145C12.4955 20.5059 12.5873 20.2129 12.5873 19.9355C12.5873 19.5566 12.4916 19.2598 12.3002 19.0449C12.1088 18.8262 11.8354 18.7168 11.4799 18.7168C11.0971 18.7168 10.7944 18.8496 10.5717 19.1152C10.353 19.377 10.2436 19.7227 10.2436 20.1523H8.54437C8.54437 19.6328 8.66742 19.1582 8.91352 18.7285C9.16352 18.2988 9.51508 17.9629 9.9682 17.7207C10.4213 17.4746 10.935 17.3516 11.5092 17.3516C12.3881 17.3516 13.0698 17.5625 13.5541 17.9844C14.0424 18.4062 14.2866 19.002 14.2866 19.7715C14.2866 20.1934 14.1772 20.623 13.9584 21.0605C13.7397 21.498 13.3647 22.0078 12.8334 22.5898L10.894 24.6348H14.562V26ZM24.0438 23.1582C23.9774 24.0762 23.6376 24.7988 23.0243 25.3262C22.4149 25.8535 21.6102 26.1172 20.6102 26.1172C19.5165 26.1172 18.6552 25.75 18.0262 25.0156C17.4012 24.2773 17.0887 23.2656 17.0887 21.9805V21.459C17.0887 20.6387 17.2333 19.916 17.5223 19.291C17.8114 18.666 18.2235 18.1875 18.7587 17.8555C19.2977 17.5195 19.9227 17.3516 20.6337 17.3516C21.618 17.3516 22.411 17.6152 23.0126 18.1426C23.6141 18.6699 23.9618 19.4102 24.0555 20.3633H22.2977C22.2548 19.8125 22.1005 19.4141 21.8348 19.168C21.5731 18.918 21.1727 18.793 20.6337 18.793C20.0477 18.793 19.6083 19.0039 19.3153 19.4258C19.0262 19.8438 18.8778 20.4941 18.87 21.377V22.0215C18.87 22.9434 19.0087 23.6172 19.286 24.043C19.5673 24.4688 20.0087 24.6816 20.6102 24.6816C21.1532 24.6816 21.5575 24.5586 21.8231 24.3125C22.0927 24.0625 22.247 23.6777 22.286 23.1582H24.0438ZM28.2991 20.3516C28.7484 19.8125 29.3128 19.543 29.9925 19.543C31.3675 19.543 32.0648 20.3418 32.0843 21.9395V26H30.3909V21.9863C30.3909 21.623 30.3128 21.3555 30.1566 21.1836C30.0003 21.0078 29.7405 20.9199 29.3773 20.9199C28.8812 20.9199 28.5218 21.1113 28.2991 21.4941V26H26.6058V17H28.2991V20.3516ZM38.5955 26C38.5173 25.8477 38.4607 25.6582 38.4255 25.4316C38.0154 25.8887 37.4822 26.1172 36.8259 26.1172C36.2048 26.1172 35.6892 25.9375 35.2791 25.5781C34.8728 25.2188 34.6697 24.7656 34.6697 24.2188C34.6697 23.5469 34.9177 23.0312 35.4138 22.6719C35.9138 22.3125 36.6345 22.1309 37.5759 22.127H38.3552V21.7637C38.3552 21.4707 38.2791 21.2363 38.1267 21.0605C37.9783 20.8848 37.742 20.7969 37.4177 20.7969C37.1326 20.7969 36.908 20.8652 36.7439 21.002C36.5837 21.1387 36.5037 21.3262 36.5037 21.5645H34.8103C34.8103 21.1973 34.9236 20.8574 35.1502 20.5449C35.3767 20.2324 35.697 19.9883 36.1111 19.8125C36.5252 19.6328 36.99 19.543 37.5056 19.543C38.2869 19.543 38.906 19.7402 39.363 20.1348C39.824 20.5254 40.0545 21.0762 40.0545 21.7871V24.5352C40.0584 25.1367 40.1423 25.5918 40.3064 25.9004V26H38.5955ZM37.1951 24.8223C37.4451 24.8223 37.6755 24.7676 37.8865 24.6582C38.0974 24.5449 38.2537 24.3945 38.3552 24.207V23.1172H37.7224C36.8748 23.1172 36.4236 23.4102 36.3689 23.9961L36.363 24.0957C36.363 24.3066 36.4373 24.4805 36.5857 24.6172C36.7341 24.7539 36.9373 24.8223 37.1951 24.8223ZM44.4738 19.6602L44.5266 20.3926C44.9797 19.8262 45.5871 19.543 46.3488 19.543C47.0207 19.543 47.5207 19.7402 47.8488 20.1348C48.177 20.5293 48.3449 21.1191 48.3527 21.9043V26H46.6594V21.9453C46.6594 21.5859 46.5812 21.3262 46.425 21.166C46.2687 21.002 46.009 20.9199 45.6457 20.9199C45.1691 20.9199 44.8117 21.123 44.5734 21.5293V26H42.8801V19.6602H44.4738ZM50.9557 22.7832C50.9557 21.8105 51.1862 21.0273 51.6471 20.4336C52.112 19.8398 52.737 19.543 53.5221 19.543C54.2174 19.543 54.7584 19.7812 55.1452 20.2578L55.2155 19.6602H56.7506V25.7891C56.7506 26.3438 56.6237 26.8262 56.3698 27.2363C56.1198 27.6465 55.7663 27.959 55.3092 28.1738C54.8522 28.3887 54.317 28.4961 53.7038 28.4961C53.2389 28.4961 52.7858 28.4023 52.3444 28.2148C51.903 28.0312 51.569 27.793 51.3424 27.5L52.0924 26.4688C52.5143 26.9414 53.026 27.1777 53.6276 27.1777C54.0768 27.1777 54.4264 27.0566 54.6764 26.8145C54.9264 26.5762 55.0514 26.2363 55.0514 25.7949V25.4551C54.6608 25.8965 54.1471 26.1172 53.5104 26.1172C52.7487 26.1172 52.1315 25.8203 51.6588 25.2266C51.1901 24.6289 50.9557 23.8379 50.9557 22.8535V22.7832ZM52.6491 22.9062C52.6491 23.4805 52.7643 23.9316 52.9948 24.2598C53.2252 24.584 53.5416 24.7461 53.944 24.7461C54.4596 24.7461 54.8288 24.5527 55.0514 24.166V21.5C54.8248 21.1133 54.4596 20.9199 53.9557 20.9199C53.5495 20.9199 53.2291 21.0859 52.9948 21.418C52.7643 21.75 52.6491 22.2461 52.6491 22.9062ZM62.5352 26.1172C61.6055 26.1172 60.8477 25.832 60.2618 25.2617C59.6798 24.6914 59.3887 23.9316 59.3887 22.9824V22.8184C59.3887 22.1816 59.5118 21.6133 59.7579 21.1133C60.004 20.6094 60.3516 20.2227 60.8009 19.9531C61.254 19.6797 61.7696 19.543 62.3477 19.543C63.2149 19.543 63.8966 19.8164 64.3927 20.3633C64.8927 20.9102 65.1427 21.6855 65.1427 22.6895V23.3809H61.1055C61.1602 23.7949 61.3243 24.127 61.5977 24.377C61.8751 24.627 62.2247 24.752 62.6466 24.752C63.2989 24.752 63.8087 24.5156 64.1759 24.043L65.0079 24.9746C64.754 25.334 64.4102 25.6152 63.9766 25.8184C63.543 26.0176 63.0626 26.1172 62.5352 26.1172ZM62.3419 20.9141C62.0059 20.9141 61.7325 21.0273 61.5216 21.2539C61.3145 21.4805 61.1817 21.8047 61.1231 22.2266H63.4786V22.0918C63.4708 21.7168 63.3692 21.4277 63.1739 21.2246C62.9786 21.0176 62.7012 20.9141 62.3419 20.9141Z" fill="white"/>
<path d="M7.34085 4.19294H21.6078V2.08818C21.6076 1.67114 21.8391 1.29073 22.2037 1.10888C22.5684 0.927023 23.0019 0.975746 23.3198 1.23431L30.5959 7.14613C30.851 7.35168 31 7.66657 31 8C31 8.33343 30.851 8.64832 30.5959 8.85387L23.3198 14.7657C23.0019 15.0243 22.5684 15.073 22.2037 14.8911C21.8391 14.7093 21.6076 14.3289 21.6078 13.9118V11.8071H2.05681C1.47387 11.8053 1.00174 11.3193 1 10.7193V5.28067C1.00174 4.68068 1.47387 4.19473 2.05681 4.19294H7.34085Z" fill="#F44335"/>
<path d="M62.3012 31.9649H64.9432C65.5261 31.9665 65.9983 32.4178 66 32.9749V38.0251C65.9983 38.5822 65.5261 39.0335 64.9432 39.0351H45.3922V40.9896C45.3924 41.3768 45.1609 41.73 44.7963 41.8989C44.4316 42.0678 43.9981 42.0225 43.6802 41.7824L36.4041 36.2929C36.149 36.102 36 35.8096 36 35.5C36 35.1904 36.149 34.898 36.4041 34.7071L43.6802 29.2176C43.9981 28.9775 44.4316 28.9322 44.7963 29.1011C45.1609 29.27 45.3924 29.6232 45.3922 30.0104V31.9649H62.3012Z" fill="#4ED16B"/>
<path d="M64.4 38H62.6C62.2686 38 62 37.7314 62 37.4C62 37.0686 62.2686 36.8 62.6 36.8H63.8V35.6C63.8 35.2686 64.0686 35 64.4 35C64.7314 35 65 35.2686 65 35.6V37.4C65 37.7314 64.7314 38 64.4 38Z" fill="#F5F5F5"/>
<path d="M3.6 10H2.4C2.17909 10 2 9.73137 2 9.4V7.6C2 7.26863 2.17909 7 2.4 7C2.62091 7 2.8 7.26863 2.8 7.6V8.8H3.6C3.82091 8.8 4 9.06863 4 9.4C4 9.73137 3.82091 10 3.6 10Z" fill="#F5F5F5"/>
<path d="M1.63339 11.8258H21.2341V13.3776C21.234 13.9993 21.5917 14.5664 22.1551 14.8376C22.7184 15.1087 23.3883 15.0363 23.8796 14.651L31.3758 8.77456C31.7698 8.46779 32 7.99815 32 7.50091C32 7.00367 31.7698 6.53404 31.3758 6.22727L23.8813 0.350274C23.3901 -0.0358582 22.7198 -0.108994 22.1559 0.162019C21.592 0.433031 21.2339 1.00044 21.2341 1.62257V3.17441H11.8221C11.5214 3.17441 6.53356 3.41649 6.53356 3.71512C6.53356 4.01375 6.77732 4.25583 7.07802 4.25583H21.7785C22.0792 4.25583 22.323 4.01375 22.323 3.71512V1.62257C22.3229 1.41526 22.4422 1.22616 22.63 1.13576C22.8179 1.04536 23.0412 1.06958 23.205 1.19811L30.7039 7.07672C30.8355 7.17857 30.9124 7.33498 30.9124 7.50064C30.9124 7.66631 30.8355 7.82272 30.7039 7.92456L23.2039 13.8032C23.04 13.9312 22.8168 13.9549 22.6293 13.8643C22.4418 13.7737 22.3228 13.5847 22.323 13.3776V11.2851C22.323 10.9865 22.0792 10.7444 21.7785 10.7444H1.63339C1.33269 10.7444 1.08893 10.5023 1.08893 10.2037V4.79654C1.08893 4.49792 1.33269 4.25583 1.63339 4.25583H9.09983C9.40053 4.25583 7 4.01375 7 3.71512C7 3.41649 12.1228 3.17441 11.8221 3.17441H1.63339C0.731294 3.17441 0 3.90066 0 4.79654V10.2037C0 11.0995 0.731294 11.8258 1.63339 11.8258Z" fill="black"/>
<path d="M64.4177 31.1742H61.7804C61.4891 31.1742 61.253 31.4163 61.253 31.7149C61.253 32.0135 61.4891 32.2556 61.7804 32.2556H64.4177C64.709 32.2556 64.9451 32.4977 64.9451 32.7963V38.2035C64.9451 38.5021 64.709 38.7442 64.4177 38.7442H44.902C44.6107 38.7442 44.3746 38.9863 44.3746 39.2849V41.3774C44.3747 41.5847 44.2591 41.7738 44.0772 41.8642C43.8952 41.9546 43.6788 41.9304 43.5201 41.8019L36.2556 35.9233C36.1281 35.8214 36.0536 35.665 36.0536 35.4994C36.0536 35.3337 36.1281 35.1773 36.2556 35.0754L43.5212 29.1968C43.68 29.0688 43.8962 29.0451 44.0779 29.1357C44.2595 29.2263 44.3748 29.4153 44.3746 29.6224V31.7149C44.3746 32.0135 44.6107 32.2556 44.902 32.2556H61.7804C62.0717 32.2556 61.253 32.0135 61.253 31.7149C61.253 31.4163 62.0717 31.1742 61.7804 31.1742H45.4295V29.6224C45.4296 29.0007 45.083 28.4336 44.5373 28.1624C43.9915 27.8913 43.3426 27.9637 42.8666 28.349L35.6047 34.2254C35.223 34.5322 35 35.0019 35 35.4991C35 35.9963 35.223 36.466 35.6047 36.7727L42.865 42.6497C43.3409 43.0359 43.9902 43.109 44.5365 42.838C45.0827 42.567 45.4297 41.9996 45.4295 41.3774V39.8256H64.4177C65.2916 39.8256 66 39.0993 66 38.2035V32.7963C66 31.9005 65.2916 31.1742 64.4177 31.1742Z" fill="black"/>
</svg>
