<svg width="24" height="24" viewBox="0 0 24 24" fill="none" xmlns="http://www.w3.org/2000/svg">
<circle cx="12" cy="12" r="12" fill="#03A3F2"/>
<path d="M10.9893 14.2407V19H8.20605V5.49219H13.4756C14.4899 5.49219 15.3805 5.67773 16.1475 6.04883C16.9206 6.41992 17.5143 6.94873 17.9287 7.63525C18.3431 8.31559 18.5503 9.0918 18.5503 9.96387C18.5503 11.2874 18.0957 12.3327 17.1865 13.0996C16.2835 13.8604 15.0311 14.2407 13.4292 14.2407H10.9893ZM10.9893 11.9863H13.4756C14.2116 11.9863 14.7713 11.8132 15.1548 11.4668C15.5444 11.1204 15.7393 10.6257 15.7393 9.98242C15.7393 9.32064 15.5444 8.78564 15.1548 8.37744C14.7651 7.96924 14.2271 7.75895 13.5405 7.74658H10.9893V11.9863Z" fill="white"/>
</svg>
