<svg width="115" height="115" viewBox="0 0 115 115" fill="none" xmlns="http://www.w3.org/2000/svg">
<path d="M26.8335 94.8289H36.4169V108.949H26.8335V94.8289Z" fill="#1F7996"/>
<path d="M61.3334 94.829H70.9168V108.949H61.3334V94.829Z" fill="#1F7996"/>
<path d="M55.5833 28.2633H47.9167C29.6989 28.2593 13.9938 41.7518 10.3501 60.5375H7.6665C4.49053 60.5375 1.9165 63.2464 1.9165 66.5889V78.6917C1.9165 82.0342 4.49053 84.7432 7.6665 84.7432H11.8429C15.9982 94.5545 25.25 100.876 35.4581 100.88H78.5831C91.0703 100.947 101.303 90.4679 101.583 77.3302C101.926 50.5949 81.6133 28.6304 56.2098 28.2673C56.0011 28.2633 55.7922 28.2633 55.5833 28.2633Z" fill="#1F7996"/>
<path d="M37.1391 29.9074C20.7651 22.9683 9.58313 25.4132 9.58313 32.2977C9.58313 38.103 13.541 43.8902 15.7682 46.6899C20.7554 38.585 28.3378 32.6305 37.1391 29.9074Z" fill="#1F7996"/>
<path d="M70.9166 92.8119V112.983H86.25V94.8289" fill="#1F7996"/>
<path d="M32.5834 30.2804C32.5775 37.875 35.4871 45.1509 40.6545 50.4518H78.1791C88.7744 39.5471 88.9624 21.6671 78.6007 10.5164C68.239 -0.634292 51.2498 -0.831909 40.6545 10.0729C35.4889 15.3899 32.5796 22.676 32.5834 30.2804Z" fill="#EEB83B"/>
<path d="M36.4166 92.8119V112.983H51.75V94.8289" fill="#1F7996"/>
<path d="M59.4166 50.4517C70.002 50.4517 78.5832 41.4206 78.5832 30.2803C78.5832 19.14 70.002 10.109 59.4166 10.109C48.8312 10.109 40.25 19.14 40.25 30.2803C40.25 41.4206 48.8312 50.4517 59.4166 50.4517Z" fill="#FED856"/>
<path d="M110.208 58.5204C107.475 58.6071 105.325 61.0095 105.407 63.8861C105.409 63.9567 105.413 64.0253 105.417 64.0957V64.5718H102.093C99.7358 54.5042 94.4765 45.4493 87.0341 38.6535C91.4481 22.6151 82.67 5.84679 67.4304 1.20138C52.1909 -3.44403 36.2578 5.79242 31.8438 21.8327C31.5026 23.0711 31.238 24.3299 31.0502 25.6047C22.1952 22.9924 14.6762 23.1841 10.6838 26.2361C8.78245 27.6016 7.65154 29.8731 7.66704 32.2976C7.66704 37.9718 10.9387 43.4706 13.4056 46.8211C11.3259 50.4559 9.77927 54.3995 8.81704 58.5204H7.66704C3.4327 58.5204 0 62.133 0 66.5889V78.6917C0 83.1475 3.4327 86.7602 7.66659 86.7602H10.6317C13.6466 93.0577 18.718 97.9998 24.9166 100.678V108.949C24.9166 110.062 25.7753 110.966 26.8332 110.966H34.5V112.983C34.5 114.096 35.3587 115 36.4166 115H51.75C52.8079 115 53.6666 114.096 53.6666 112.983V102.897H59.4166V108.949C59.4166 110.062 60.2753 110.966 61.3332 110.966H69V112.983C69 114.096 69.8587 115 70.9166 115H86.25C87.3079 115 88.1666 114.096 88.1666 112.983V100.88C97.2707 96.9483 103.293 87.71 103.5 77.3559C103.533 74.425 103.327 71.4981 102.883 68.6055H105.417V72.6398H109.25V68.6055H110.208C112.855 68.6055 115 66.3482 115 63.5627C115 60.7776 112.855 58.5204 110.208 58.5204ZM59.4166 4.0576C73.1705 4.05146 84.3276 15.7792 84.3332 30.2562C84.337 37.0338 81.8454 43.5493 77.3815 48.4346H71.5013C81.0442 41.4128 83.373 27.5794 76.7012 17.536C70.0294 7.49249 56.8848 5.0419 47.3416 12.0637C37.7984 19.0855 35.4699 32.9189 42.1417 42.9623C43.5562 45.0924 45.3176 46.9461 47.3416 48.4348H41.4517C31.9181 38.0002 32.2287 21.4072 42.1437 11.3739C46.7859 6.67579 52.9766 4.05358 59.4166 4.0576ZM59.4166 48.4346C49.8889 48.4346 42.1666 40.3075 42.1666 30.2803C42.1666 20.2532 49.8889 12.1261 59.4166 12.1261C68.9443 12.1261 76.6666 20.2532 76.6666 30.2803C76.6551 40.3016 68.9387 48.4226 59.4166 48.4346ZM11.5 32.2976C11.4924 31.168 12.0348 30.1111 12.9355 29.4979C15.0322 28.199 17.4513 27.5938 19.8795 27.7671C23.5519 27.8681 27.1935 28.5134 30.6953 29.6875C30.6953 29.8891 30.6666 30.091 30.6666 30.2806V30.3411C24.7421 33.2961 19.5902 37.7278 15.6611 43.2507C13.2901 40.1018 11.845 36.2956 11.5 32.2976ZM28.75 106.932V102.01C30.6322 102.506 32.5603 102.793 34.5 102.861V106.932H28.75ZM63.25 106.932V102.897H69V106.932H63.25ZM88.1666 96.4427V94.8289H84.3332V110.966H72.8332V92.8119H69V98.8633H53.6666V94.8289H49.8332V110.966H38.3332V92.8119H34.5V98.8269C25.4092 98.4314 17.3113 92.6606 13.5929 83.9203C13.2843 83.1941 12.5981 82.7261 11.843 82.7261H7.66659C5.54875 82.7261 3.83318 80.9208 3.83318 78.6917V66.5889C3.83318 64.36 5.54853 62.5545 7.66659 62.5545H10.35C11.2603 62.5545 12.0463 61.8808 12.2284 60.9407C13.1293 56.2913 14.8447 51.8596 17.2884 47.8737C17.3113 47.8394 17.3497 47.8252 17.3708 47.7909C20.7692 42.2619 25.4631 37.7456 31.0004 34.6794C31.6865 39.678 33.5667 44.4102 36.4667 48.4344H32.5834V52.4687H86.25V48.4344H82.3667C83.647 46.6594 84.7357 44.739 85.6117 42.7096C94.7445 51.6213 99.8544 64.1962 99.6666 77.3037C99.502 85.4331 95.0742 92.7998 88.1666 96.4427ZM110.208 64.5718H109.25V64.0957C109.25 63.3514 109.501 62.5547 110.208 62.5547C110.737 62.5547 111.167 63.0065 111.167 63.5634C111.167 64.1201 110.737 64.5718 110.208 64.5718Z" fill="black"/>
<path d="M61.3334 20.4872V18.1775H57.5V20.4872C54.625 21.4292 53.0209 24.6445 53.9139 27.6683C54.3566 29.1629 55.359 30.4035 56.6912 31.1015L60.4267 33.0661C61.2355 33.4897 61.567 34.5225 61.1645 35.3758C60.8885 35.9628 60.3193 36.3339 59.6962 36.332H59.1365C58.2338 36.3299 57.5016 35.5595 57.4998 34.6095V34.3149H53.6664V34.6095C53.676 37.1168 55.2265 39.3274 57.4998 40.0739V42.3836H61.3332V40.0739C64.2082 39.132 65.8124 35.9167 64.9193 32.8928C64.4766 31.3982 63.4742 30.1576 62.142 29.4596L58.4065 27.495C57.5977 27.0714 57.2662 26.0387 57.6687 25.1853C57.9447 24.5984 58.5139 24.2273 59.137 24.2291H59.6967C60.5994 24.2313 61.3316 25.0016 61.3334 25.9517V26.2462H65.1668V25.9517C65.1572 23.4444 63.6065 21.2335 61.3334 20.4872Z" fill="black"/>
<path d="M7.66663 66.5889H11.5V70.6232H7.66663V66.5889Z" fill="black"/>
<path d="M46 28.2633H49.8334V32.2977H46V28.2633Z" fill="black"/>
<path d="M69 28.2633H72.8334V32.2977H69V28.2633Z" fill="black"/>
<path d="M21.0834 52.469H24.9168V56.5034H21.0834V52.469Z" fill="black"/>
</svg>
