<svg width="65" height="67" viewBox="0 0 65 67" fill="none" xmlns="http://www.w3.org/2000/svg">
<path d="M53.7799 43.5154C53.7811 43.0094 53.6455 42.5138 53.3878 42.0829L50.8892 37.9359C50.5778 37.2982 50.4165 36.5936 50.4186 35.8797V23.1034C50.4186 14.8093 43.8978 8.08618 35.8532 8.08618H29.1307C21.0861 8.08618 14.5653 14.8093 14.5653 23.1034V35.8797C14.5676 36.5936 14.4062 37.2983 14.0947 37.9359L11.5961 42.0829C11.3384 42.5138 11.2028 43.0094 11.204 43.5154C11.2095 44.9998 12.3748 46.2011 13.8145 46.2069H51.1692C52.6091 46.2011 53.7744 44.9997 53.7799 43.5154Z" fill="#4ED16B"/>
<path d="M35.8533 8.08619L41.4554 0H23.5288L29.1308 8.08619V10.3965H35.8533V8.08619Z" fill="#4ED16B"/>
<path d="M53.3878 42.083L50.8892 37.9359C50.5778 37.2982 50.4165 36.5937 50.4186 35.8798V23.1035C50.4265 19.758 49.3498 16.5051 47.3599 13.8621C44.3684 30.8547 33.8366 40.6506 23.9433 46.2069H51.1694C52.6169 46.2127 53.7957 45.0079 53.8013 43.5143C53.8036 43.0082 53.668 42.5127 53.4103 42.083H53.3878Z" fill="#39BC56"/>
<path d="M38.094 25.4137V24.6745C38.0885 22.5339 36.4056 20.7989 34.3294 20.793H33.6124V18.4827H31.3715V20.793H30.6545C28.575 20.7861 26.8843 22.5176 26.8775 24.6616C26.8719 26.2893 27.8523 27.7471 29.3324 28.3131L31.3715 29.0986V33.4998H30.6545C29.8131 33.4998 29.1307 32.7963 29.1307 31.9287V31.1894H26.8898V31.9287C26.8954 34.0693 28.5783 35.8043 30.6545 35.8102H34.3295C36.409 35.8171 38.0998 34.0855 38.1065 31.9415C38.1121 30.3139 37.1317 28.856 35.6516 28.2901L33.6125 27.5046V23.1034H34.3295C35.171 23.1034 35.8533 23.8069 35.8533 24.6745V25.4137H38.094ZM34.8673 30.4503C35.4589 30.6871 35.8499 31.274 35.8532 31.929C35.8532 32.7965 35.1708 33.5001 34.3294 33.5001H33.6124V29.9652L34.8673 30.4503ZM31.3717 26.6382L30.1167 26.153C29.5251 25.9162 29.1341 25.3293 29.1308 24.6743C29.1308 23.8068 29.8132 23.1033 30.6546 23.1033H31.3717V26.6382Z" fill="white"/>
<path d="M54.9003 11.5517C54.5193 9.1813 52.7177 7.32382 50.4186 6.93102C52.7177 6.53822 54.5193 4.68074 54.9003 2.3103C55.2813 4.68074 57.0829 6.53822 59.382 6.93102C57.0829 7.32382 55.2813 9.18143 54.9003 11.5517Z" fill="#FDB62F"/>
<path d="M4.48168 34.6551C4.1007 32.2848 2.29911 30.4272 0 30.0345C2.29911 29.6417 4.1007 27.7843 4.48168 25.4138C4.86267 27.7843 6.66425 29.6417 8.96337 30.0345C6.66425 30.4272 4.86254 32.2848 4.48168 34.6551Z" fill="#FDB62F"/>
<path d="M64.5022 40.3039C63.5823 38.7074 61.6059 38.1426 60.0205 39.0217L44.1219 46.022C43.8418 46.1444 43.5404 46.208 43.2368 46.2068H23.5286C22.2906 46.2068 21.2878 45.1729 21.2878 43.8965C21.2878 42.62 22.2906 41.5861 23.5286 41.5861H32.492C36.2051 41.5861 39.2145 38.4833 39.2145 34.655H20.5708C17.4806 34.6574 14.5587 36.1071 12.6271 38.5942L5.60204 47.3619L13.5122 62.3098L43.9539 54.7666C45.2693 54.4535 46.5421 53.973 47.7409 53.3341L63.4267 45.0514C64.9874 44.0408 65.4669 41.9234 64.5022 40.3039Z" fill="#FEC9A3"/>
<path d="M10.9913 57.5508L13.5122 62.3102L43.9539 54.7669C45.2693 54.4538 46.5421 53.9733 47.7409 53.3344L56.2225 48.8408C42.1276 53.2882 23.4167 56.0606 10.9913 57.5508Z" fill="#F7BB8F"/>
<path d="M0 46.2069V67H14.5654L17.9266 63.5346L4.48168 42.7415L0 46.2069Z" fill="#4398D1"/>
<path d="M0 67H14.5654L17.9266 63.5345L15.4617 59.7224C10.4782 61.8432 5.29735 63.434 0 64.4702V67Z" fill="#3E8CC7"/>
<path d="M10.0837 63.538C11.3213 63.538 12.3246 62.5036 12.3246 61.2276C12.3246 59.9516 11.3213 58.9172 10.0837 58.9172C8.84614 58.9172 7.84288 59.9516 7.84288 61.2276C7.84288 62.5036 8.84614 63.538 10.0837 63.538Z" fill="#D9D9D9"/>
</svg>
