<svg width="28" height="28" viewBox="0 0 28 28" fill="none" xmlns="http://www.w3.org/2000/svg">
<path d="M23.305 20.7882C23.8925 20.319 24.345 19.6899 24.6016 18.9677H24.8387C25.8349 18.9677 26.6451 18.1575 26.6451 17.1613C26.6451 16.4956 26.2793 15.9194 25.7419 15.6059V13.5484C25.7419 11.5563 24.121 9.93549 22.129 9.93549H19.4193C17.4272 9.93549 15.8064 11.5563 15.8064 13.5484V15.6059C15.269 15.9194 14.9032 16.4956 14.9032 17.1613C14.9032 18.1575 15.7134 18.9677 16.7096 18.9677H16.9467C17.2032 19.6899 17.6558 20.3185 18.2433 20.7882C15.6312 20.9309 13.5483 23.0946 13.5483 25.7419V27.5484C13.5483 27.7981 13.7507 28 14 28H27.5483C27.7976 28 28 27.7981 28 27.5484V25.7419C28 23.0946 25.9171 20.9309 23.305 20.7882ZM18.7505 21.6774L20.169 23.4505L18.7934 24.8261L18.167 21.695C18.2826 21.6851 18.3982 21.6774 18.5161 21.6774H18.7505ZM21.6408 21.6774L20.7741 22.7608L19.9075 21.6774H21.6408ZM22.7978 21.6774H23.0322C23.1501 21.6774 23.2657 21.6851 23.3809 21.695L22.7545 24.8261L21.3789 23.4505L22.7978 21.6774ZM24.8387 18.0645H24.812C24.8287 17.9159 24.8387 17.7656 24.8387 17.6129V16.2581C25.3368 16.2581 25.7419 16.6632 25.7419 17.1613C25.7419 17.6594 25.3368 18.0645 24.8387 18.0645ZM16.7096 13.5484C16.7096 12.054 17.9249 10.8387 19.4193 10.8387H22.129C23.6234 10.8387 24.8387 12.054 24.8387 13.5484V15.3548H24.387H23.0322C22.5341 15.3548 22.129 14.9497 22.129 14.4516V13.0968V12.6452H21.2258V13.0968C21.2258 14.3419 20.2128 15.3548 18.9677 15.3548H17.1612H16.7096V13.5484ZM16.7096 18.0645C16.2115 18.0645 15.8064 17.6594 15.8064 17.1613C15.8064 16.6632 16.2115 16.2581 16.7096 16.2581V17.6129C16.7096 17.7656 16.7196 17.9159 16.7363 18.0645H16.7096ZM17.6129 17.6129V16.2581H18.9677C19.9269 16.2581 20.7863 15.8268 21.3667 15.1498C21.6403 15.8001 22.2834 16.2581 23.0322 16.2581H23.9354V17.6129C23.9354 19.3557 22.5174 20.7742 20.7741 20.7742C19.0309 20.7742 17.6129 19.3557 17.6129 17.6129ZM27.0967 27.0968H14.4516V25.7419C14.4516 23.9314 15.6425 22.3946 17.2814 21.8707L18.0735 25.8309C18.106 25.9939 18.2261 26.1263 18.3856 26.1746C18.4285 26.1872 18.4723 26.1936 18.5161 26.1936C18.634 26.1936 18.7496 26.147 18.8354 26.0612L20.7741 24.1225L22.7129 26.0612C22.7987 26.147 22.9143 26.1936 23.0322 26.1936C23.076 26.1936 23.1198 26.1872 23.1632 26.1741C23.3226 26.1263 23.4427 25.9939 23.4752 25.8305L24.2674 21.8703C25.9058 22.3946 27.0967 23.9314 27.0967 25.7419V27.0968Z" fill="white"/>
<path d="M14.4516 17.6129V15.8065C14.4516 13.1591 12.3688 10.9954 9.75665 10.8527C10.3442 10.3835 10.7967 9.75439 11.0532 9.03226H11.2903C12.2866 9.03226 13.0968 8.22206 13.0968 7.22581C13.0968 6.56013 12.731 5.98387 12.1935 5.67045V3.6129C12.1935 1.62084 10.5727 0 8.58065 0H5.87097C3.8789 0 2.25806 1.62084 2.25806 3.6129V5.67045C1.72065 5.98387 1.35484 6.56013 1.35484 7.22581C1.35484 8.22206 2.16503 9.03226 3.16129 9.03226H3.39839C3.6549 9.75439 4.10742 10.383 4.69497 10.8527C2.08284 10.9954 0 13.1591 0 15.8065V17.6129C0 17.8626 0.202323 18.0645 0.451613 18.0645H14C14.2493 18.0645 14.4516 17.8626 14.4516 17.6129ZM5.20213 11.7419L6.62065 13.515L5.24503 14.8906L4.61865 11.7595C4.73426 11.7496 4.84987 11.7419 4.96774 11.7419H5.20213ZM8.09245 11.7419L7.22581 12.8254L6.35916 11.7419H8.09245ZM9.24949 11.7419H9.48387C9.60174 11.7419 9.71735 11.7496 9.83252 11.7595L9.20613 14.8906L7.83052 13.515L9.24949 11.7419ZM11.2903 8.12903H11.2637C11.2804 7.98045 11.2903 7.83006 11.2903 7.67742V6.32258C11.7885 6.32258 12.1935 6.72768 12.1935 7.22581C12.1935 7.72394 11.7885 8.12903 11.2903 8.12903ZM3.16129 3.6129C3.16129 2.11852 4.37658 0.903226 5.87097 0.903226H8.58065C10.075 0.903226 11.2903 2.11852 11.2903 3.6129V5.41935H10.8387H9.48387C8.98574 5.41935 8.58065 5.01426 8.58065 4.51613V3.16129V2.70968H7.67742V3.16129C7.67742 4.40639 6.66445 5.41935 5.41935 5.41935H3.6129H3.16129V3.6129ZM3.16129 8.12903C2.66316 8.12903 2.25806 7.72394 2.25806 7.22581C2.25806 6.72768 2.66316 6.32258 3.16129 6.32258V7.67742C3.16129 7.83006 3.17123 7.98045 3.18794 8.12903H3.16129ZM4.06452 7.67742V6.32258H5.41935C6.37858 6.32258 7.238 5.89129 7.81832 5.21432C8.092 5.86465 8.7351 6.32258 9.48387 6.32258H10.3871V7.67742C10.3871 9.42019 8.96903 10.8387 7.22581 10.8387C5.48258 10.8387 4.06452 9.42019 4.06452 7.67742ZM13.5484 17.1613H0.903226V15.8065C0.903226 13.9959 2.09413 12.4591 3.73303 11.9352L4.52516 15.8954C4.55768 16.0585 4.67781 16.1908 4.83723 16.2391C4.88013 16.2517 4.92394 16.2581 4.96774 16.2581C5.08561 16.2581 5.20123 16.2115 5.28703 16.1257L7.22581 14.187L9.16458 16.1257C9.25039 16.2115 9.366 16.2581 9.48387 16.2581C9.52768 16.2581 9.57148 16.2517 9.61484 16.2386C9.77426 16.1908 9.89439 16.0585 9.9269 15.895L10.719 11.9348C12.3575 12.4591 13.5484 13.9959 13.5484 15.8065V17.1613Z" fill="white"/>
<path d="M12.645 27.0968C10.3075 27.0968 8.37865 25.3111 8.15149 23.0322H9.48375C9.6662 23.0322 9.83104 22.9225 9.90104 22.7536C9.97104 22.5847 9.9322 22.3905 9.80304 22.2613L6.64175 19.1001C6.46517 18.9235 6.17975 18.9235 6.00317 19.1001L2.84188 22.2613C2.71272 22.3905 2.67388 22.5847 2.74388 22.7536C2.81388 22.9225 2.97872 23.0322 3.16117 23.0322H4.53498C4.76485 25.8097 7.09924 28 9.93536 28H12.645C12.8943 28 13.0967 27.7981 13.0967 27.5484C13.0967 27.2986 12.8943 27.0968 12.645 27.0968ZM5.41924 22.5806C5.41924 22.3309 5.21691 22.129 4.96762 22.129H4.25136L6.32246 20.0579L8.39356 22.129H7.6773C7.42801 22.129 7.22569 22.3309 7.22569 22.5806C7.22569 24.4571 8.18446 26.1141 9.63775 27.0873C7.28575 26.9333 5.41924 24.971 5.41924 22.5806Z" fill="white"/>
</svg>
