<svg width="28" height="28" viewBox="0 0 28 28" fill="none" xmlns="http://www.w3.org/2000/svg">
<path d="M11.2207 7.85745H16.4302C16.8832 7.85745 17.2505 7.49017 17.2505 7.03714C17.2505 6.58411 16.8832 6.21683 16.4302 6.21683H11.2207C10.7677 6.21683 10.4004 6.58411 10.4004 7.03714C10.4004 7.49017 10.7676 7.85745 11.2207 7.85745Z" fill="white"/>
<path d="M20.0172 0H0.820312C0.367281 0 0 0.367281 0 0.820312V27.1797C0 27.6327 0.367281 28 0.820312 28H20.0172C20.4703 28 20.8376 27.6327 20.8376 27.1797V0.820312C20.8376 0.367281 20.4703 0 20.0172 0ZM19.1969 26.3594H1.64062V1.64062H19.1969V26.3594Z" fill="white"/>
<path d="M28.0001 19.879V2.7842C28.0001 1.24901 26.7511 0 25.2159 0C23.6807 0 22.4317 1.24901 22.4317 2.7842V19.879C22.4317 20.3069 22.7596 20.658 23.1778 20.6955L22.4806 22.6216C22.4073 22.8241 22.4166 23.0473 22.5064 23.243L24.4704 27.5218C24.6041 27.8132 24.8953 27.9999 25.2159 27.9999C25.5365 27.9999 25.8278 27.8132 25.9615 27.5218L27.9254 23.243C28.0152 23.0472 28.0244 22.824 27.9512 22.6216L27.254 20.6955C27.6722 20.658 28.0001 20.307 28.0001 19.879ZM24.0723 19.0587V6.8308H26.3595V19.0586H24.0723V19.0587ZM25.2159 1.64062C25.8465 1.64062 26.3595 2.15365 26.3595 2.7842V5.19017H24.0723V2.7842C24.0723 2.15365 24.5853 1.64062 25.2159 1.64062ZM25.2159 25.2132L24.1377 22.864L24.9212 20.6993H25.5106L26.2941 22.864L25.2159 25.2132Z" fill="white"/>
<path d="M4.95998 8.59671C5.11382 8.75055 5.32245 8.83701 5.54 8.83701C5.75754 8.83701 5.96623 8.75055 6.12001 8.59676L8.61174 6.10504C8.9321 5.78468 8.9321 5.26531 8.61174 4.94495C8.29143 4.62459 7.77201 4.62459 7.45165 4.94495L5.54 6.85661L4.94576 6.26226C4.62551 5.9419 4.10609 5.9419 3.78568 6.26226C3.46532 6.58262 3.46532 7.10199 3.78568 7.42235L4.95998 8.59671Z" fill="white"/>
<path d="M11.2207 12.8343H16.4302C16.8832 12.8343 17.2505 12.467 17.2505 12.014C17.2505 11.5609 16.8832 11.1937 16.4302 11.1937H11.2207C10.7677 11.1937 10.4004 11.5609 10.4004 12.014C10.4004 12.467 10.7676 12.8343 11.2207 12.8343Z" fill="white"/>
<path d="M4.95998 13.5735C5.11382 13.7273 5.32245 13.8138 5.54 13.8138C5.75754 13.8138 5.96623 13.7273 6.12001 13.5735L8.61174 11.0818C8.9321 10.7615 8.9321 10.2421 8.61174 9.92173C8.29143 9.60137 7.77201 9.60137 7.45165 9.92173L5.54 11.8334L4.94576 11.2391C4.62551 10.9188 4.10609 10.9188 3.78568 11.2391C3.46532 11.5595 3.46532 12.0789 3.78568 12.3992L4.95998 13.5735Z" fill="white"/>
<path d="M11.2207 17.8111H16.4302C16.8832 17.8111 17.2505 17.4438 17.2505 16.9908C17.2505 16.5377 16.8832 16.1704 16.4302 16.1704H11.2207C10.7677 16.1704 10.4004 16.5377 10.4004 16.9908C10.4004 17.4438 10.7676 17.8111 11.2207 17.8111Z" fill="white"/>
<path d="M11.2207 22.9785H16.4302C16.8832 22.9785 17.2505 22.6112 17.2505 22.1582C17.2505 21.7051 16.8832 21.3379 16.4302 21.3379H11.2207C10.7677 21.3379 10.4004 21.7051 10.4004 22.1582C10.4004 22.6112 10.7676 22.9785 11.2207 22.9785Z" fill="white"/>
<path d="M4.96 18.5503C5.11384 18.7042 5.32247 18.7906 5.54002 18.7906C5.75757 18.7906 5.96625 18.7042 6.12003 18.5504L8.61176 16.0587C8.93212 15.7384 8.93212 15.219 8.61176 14.8986C8.29145 14.5783 7.77203 14.5783 7.45167 14.8986L5.54002 16.8103L4.94578 16.2159C4.62554 15.8956 4.10611 15.8956 3.7857 16.2159C3.46529 16.5363 3.46534 17.0557 3.7857 17.376L4.96 18.5503Z" fill="white"/>
</svg>
