<svg width="24" height="24" viewBox="0 0 24 24" fill="none" xmlns="http://www.w3.org/2000/svg">
<path d="M14.7188 19.7344C16.6573 19.7344 18.2344 18.1573 18.2344 16.2188C18.2344 14.2945 16.6802 12.7271 14.761 12.7042C14.761 12.7035 14.761 12.7028 14.761 12.702C14.6292 12.7006 14.4968 12.7075 14.3644 12.7211C14.3599 12.7214 14.3551 12.722 14.3505 12.7225C14.2994 12.7278 14.2485 12.7344 14.1974 12.7421C14.1852 12.744 14.1731 12.746 14.161 12.748C14.1335 12.7524 14.1063 12.756 14.079 12.761C14.0457 12.7551 14.0057 12.7396 13.9607 12.7161C13.4258 12.4367 13.3521 11.6993 13.806 11.3018C13.8622 11.2526 13.9133 11.213 13.9567 11.1855C14.1202 11.2172 14.2875 11.2377 14.4582 11.2458C14.5142 11.2485 14.5699 11.25 14.625 11.25C14.6785 11.25 14.7316 11.2484 14.7845 11.246C14.7984 11.2454 14.8125 11.2447 14.8264 11.244C14.8773 11.241 14.9279 11.2374 14.978 11.2322C14.9872 11.2313 14.9963 11.23 15.0055 11.2291C15.0472 11.2245 15.0886 11.2192 15.13 11.2132C15.1489 11.2104 15.1677 11.2077 15.1864 11.2046C15.2261 11.1982 15.2657 11.1912 15.3049 11.1833C15.3289 11.1788 15.3527 11.1735 15.3765 11.1683C15.4061 11.1617 15.4358 11.1552 15.4651 11.1478C15.4874 11.1423 15.5098 11.1368 15.5319 11.1308C15.5369 11.1295 15.542 11.1284 15.5471 11.127C15.5471 11.1268 15.5471 11.1266 15.5471 11.1264C17.0396 10.7203 18.1406 9.35394 18.1406 7.73438C18.1406 5.79584 16.5635 4.21875 14.625 4.21875C12.6865 4.21875 11.1094 5.79584 11.1094 7.73438C11.1094 8.31482 11.2516 8.8623 11.5018 9.34515C11.5012 9.34589 11.5005 9.34644 11.4999 9.34698C11.5854 9.51196 11.6847 9.67126 11.7971 9.82324C11.8196 9.90289 11.8085 10.0437 11.7724 10.2162C11.6695 10.7069 11.1671 11.0043 10.6851 10.8655C10.5833 10.8362 10.4987 10.8058 10.4372 10.7756C9.95178 9.41455 8.65063 8.4375 7.125 8.4375C5.18646 8.4375 3.60938 10.0146 3.60938 11.9531C3.60938 13.8917 5.18646 15.4688 7.125 15.4688C8.19855 15.4688 9.16058 14.9846 9.80603 14.2238C9.80841 14.2264 9.81116 14.2288 9.81372 14.2313C10.0408 13.9614 10.2272 13.6571 10.3663 13.324C10.4185 13.2687 10.5297 13.2112 10.6767 13.1578C11.1312 12.9922 11.632 13.227 11.7951 13.6824C11.8566 13.8543 11.8978 14.0039 11.9086 14.1057C11.7709 14.2905 11.6532 14.4825 11.5578 14.6785C11.5477 14.6992 11.5388 14.7202 11.5291 14.7411C11.5294 14.7411 11.5296 14.7413 11.5298 14.7415C11.3207 15.1908 11.2031 15.6912 11.2031 16.2188C11.2031 18.1573 12.7802 19.7344 14.7188 19.7344ZM14.4584 14.599C14.4646 14.5981 14.4706 14.597 14.4769 14.5961C14.5558 14.5844 14.6365 14.5781 14.7188 14.5781C15.6235 14.5781 16.3594 15.314 16.3594 16.2188C16.3594 17.1235 15.6235 17.8594 14.7188 17.8594C13.8142 17.8594 13.0781 17.1235 13.0781 16.2188C13.0781 15.4026 13.6771 14.7241 14.4584 14.599ZM14.625 6.09375C15.5297 6.09375 16.2656 6.82965 16.2656 7.73438C16.2656 8.43878 15.8192 9.04083 15.1946 9.27283C15.1802 9.27814 15.1655 9.28308 15.1511 9.28802C15.1417 9.29114 15.1324 9.29443 15.1229 9.29755C15.1093 9.30194 15.0956 9.30579 15.0818 9.30981C15.071 9.31293 15.0602 9.31622 15.0493 9.31915C15.0363 9.32263 15.0231 9.32574 15.0099 9.32904C14.9978 9.33179 14.9859 9.33472 14.9736 9.33728C14.9612 9.34003 14.9485 9.34259 14.9359 9.34515C14.9227 9.34753 14.9095 9.34991 14.8962 9.35211C14.8843 9.35413 14.8722 9.35614 14.8603 9.35797C14.8458 9.35999 14.8312 9.36182 14.8165 9.36346C14.8054 9.36475 14.7942 9.36621 14.783 9.36731C14.7662 9.36877 14.7491 9.37006 14.7323 9.37115C14.723 9.3717 14.7138 9.37262 14.7047 9.37299C14.6783 9.37427 14.6517 9.375 14.625 9.375C14.5935 9.375 14.5618 9.37408 14.5298 9.37207C14.5291 9.37207 14.5281 9.37189 14.5274 9.37189C14.4404 9.36639 14.3505 9.35303 14.2562 9.3327C13.821 9.23236 13.4513 8.95862 13.2244 8.58801C13.2233 8.58618 13.222 8.58417 13.2209 8.58215C13.2081 8.56128 13.196 8.54022 13.1843 8.51862C13.1829 8.51587 13.1812 8.51294 13.1797 8.51019C13.0552 8.27893 12.9844 8.01489 12.9844 7.73438C12.9844 6.82965 13.7203 6.09375 14.625 6.09375ZM7.125 13.5938C6.22028 13.5938 5.48438 12.8578 5.48438 11.9531C5.48438 11.0484 6.22028 10.3125 7.125 10.3125C7.40369 10.3125 7.66626 10.3824 7.89624 10.5057C7.89331 10.5095 7.89001 10.5134 7.88708 10.5172C8.14526 10.6529 8.37085 10.858 8.53107 11.1262C8.59607 11.235 8.64935 11.3551 8.69403 11.4935C8.70135 11.5162 8.70941 11.5384 8.71783 11.5602C8.74878 11.6862 8.76562 11.8176 8.76562 11.9531C8.76562 12.8578 8.02972 13.5938 7.125 13.5938ZM24 12C24 14.3687 23.2969 16.6723 21.9668 18.6617C21.6791 19.092 21.0969 19.2078 20.6664 18.9199C20.2359 18.6323 20.1204 18.05 20.408 17.6195C21.5314 15.9395 22.125 13.9964 22.125 12C22.125 6.41711 17.5829 1.875 12 1.875C6.41711 1.875 1.875 6.41711 1.875 12C1.875 17.5829 6.41711 22.125 12 22.125C13.8519 22.125 15.663 21.6207 17.2377 20.6669C17.6805 20.3987 18.2569 20.5402 18.5251 20.983C18.7936 21.4259 18.652 22.0023 18.2091 22.2706C16.3414 23.402 14.1943 24 12 24C8.79474 24 5.78119 22.7518 3.51471 20.4853C1.24823 18.2188 0 15.2053 0 12C0 8.79474 1.24823 5.78119 3.51471 3.51471C5.78119 1.24823 8.79474 0 12 0C15.2053 0 18.2188 1.24823 20.4853 3.51471C22.7518 5.78119 24 8.79474 24 12Z" fill="url(#paint0_linear)"/>
<defs>
<linearGradient id="paint0_linear" x1="0" y1="12" x2="24" y2="12" gradientUnits="userSpaceOnUse">
<stop stop-color="#00F2FE"/>
<stop offset="0.0208" stop-color="#03EFFE"/>
<stop offset="0.2931" stop-color="#24D2FE"/>
<stop offset="0.5538" stop-color="#3CBDFE"/>
<stop offset="0.7956" stop-color="#4AB0FE"/>
<stop offset="1" stop-color="#4FACFE"/>
</linearGradient>
</defs>
</svg>
