<svg width="66" height="72" viewBox="0 0 66 72" fill="none" xmlns="http://www.w3.org/2000/svg">
<path d="M32.6638 72C52.3084 64.6512 65.3276 45.8805 65.3276 24.9065V12.1944C58.5928 12.1944 53.1332 6.73481 53.1332 0H32.6638H12.1944C12.1944 6.73481 6.73481 12.1944 0 12.1944V24.9064C0 45.8805 13.0192 64.6512 32.6638 72Z" fill="#4ED16B"/>
<path d="M32.6638 72C52.3084 64.6512 65.3276 45.8805 65.3276 24.9065V12.1944C58.5928 12.1944 53.1332 6.73481 53.1332 0H32.6638C32.6638 0 32.6638 55.9688 32.6638 72Z" fill="#39BC56"/>
<path d="M28.1135 48.6955L17.2851 37.8673L23.2512 31.901L28.1135 36.7632L42.0764 22.8003L48.0426 28.7665L28.1135 48.6955Z" fill="#F1F1F2"/>
</svg>
