<svg width="14" height="14" viewBox="0 0 14 14" fill="none" xmlns="http://www.w3.org/2000/svg">
<path d="M6.665 13.33C10.346 13.33 13.33 10.346 13.33 6.665C13.33 2.98402 10.346 0 6.665 0C2.98402 0 0 2.98402 0 6.665C0 10.346 2.98402 13.33 6.665 13.33Z" fill="#039BE5"/>
<path d="M3.04986 6.52049L9.47604 4.04278C9.77429 3.93502 10.0348 4.11554 9.93814 4.56653L9.9387 4.56598L8.84453 9.7208C8.76343 10.0863 8.54627 10.1751 8.24245 10.003L6.5762 8.77493L5.77252 9.54918C5.68365 9.63804 5.60867 9.71303 5.43649 9.71303L5.55479 8.01734L8.64291 5.22748C8.77732 5.10918 8.61292 5.04253 8.43574 5.16027L4.61947 7.56301L2.97433 7.0498C2.61719 6.9365 2.60942 6.69267 3.04986 6.52049Z" fill="white"/>
</svg>
