<svg width="24" height="24" viewBox="0 0 24 24" fill="none" xmlns="http://www.w3.org/2000/svg">
<path d="M24 12C24 17.8761 19.7765 22.7657 14.1992 23.7987C13.4865 23.931 12.7514 24 12 24C11.1742 24 10.368 23.9167 9.58922 23.7576C4.11722 22.6418 0 17.8016 0 12C0 8.80116 1.25194 5.89373 3.29288 3.74302C3.41091 3.61814 3.53189 3.49617 3.65531 3.37664C5.81484 1.2862 8.75705 0 12 0C15.243 0 18.1852 1.2862 20.3446 3.37664C20.3956 3.42563 20.446 3.47559 20.496 3.52552C22.6614 5.69583 24 8.69194 24 12Z" fill="#1BA27A"/>
<path d="M13.945 10.6276V8.03414H19.514V4H4.29932V8.03409H9.86788V10.6375C5.36973 10.8897 2 11.9233 2 13.1602C2 14.3971 5.36973 15.4307 9.86788 15.6829V23.7649C10.5566 23.9193 11.2697 24 12 24C12.6645 24 13.3147 23.933 13.945 23.8048V15.6929C18.5367 15.4592 22 14.4142 22 13.1602C22 11.9063 18.5367 10.8613 13.945 10.6276ZM12 14.7543C6.98244 14.7543 2.91491 13.9255 2.91491 12.9028C2.91491 12.0298 5.87915 11.2978 9.86792 11.1026V14.0679C10.5441 14.1748 11.2255 14.2285 11.9065 14.2285C12.5879 14.2285 13.2692 14.1748 13.945 14.0679V11.0935C18.0278 11.2754 21.0847 12.016 21.0847 12.9028C21.0847 13.9254 17.0171 14.7543 12 14.7543Z" fill="#F0EFEB"/>
</svg>
