<svg width="58" height="58" viewBox="0 0 58 58" fill="none" xmlns="http://www.w3.org/2000/svg">
<path d="M58 29C58 43.2005 47.7931 55.0172 34.3147 57.5135C32.5925 57.8331 30.8158 58 29 58C27.0043 58 25.056 57.7988 23.1739 57.4141C9.94995 54.7177 0 43.0206 0 29C0 21.2695 3.02552 14.2432 7.95778 9.04562C8.24302 8.74384 8.5354 8.44908 8.83367 8.16022C14.0525 3.10833 21.1629 0 29 0C36.8371 0 43.9475 3.10833 49.1662 8.16022C49.2894 8.27859 49.4112 8.39935 49.532 8.52C54.765 13.7649 58 21.0055 58 29Z" fill="#1BA27A"/>
<path d="M33.7004 25.6834V19.4159H47.1587V9.66675H10.39V19.4158H23.8473V25.7074C12.9768 26.3169 4.83331 28.8148 4.83331 31.804C4.83331 34.7931 12.9768 37.2909 23.8473 37.9005V57.4319C25.5119 57.805 27.235 58.0001 29 58.0001C30.6059 58.0001 32.1772 57.8383 33.7004 57.5284V37.9246C44.797 37.3598 53.1666 34.8344 53.1666 31.804C53.1666 28.7736 44.797 26.2482 33.7004 25.6834ZM29 35.6563C16.8742 35.6563 7.04435 33.6533 7.04435 31.1818C7.04435 29.072 14.2079 27.3031 23.8474 26.8313V33.9976C25.4816 34.2559 27.1283 34.3856 28.774 34.3856C30.4206 34.3856 32.0673 34.2559 33.7005 33.9976V26.8094C43.5671 27.2491 50.9547 29.0386 50.9547 31.1817C50.9546 33.6532 41.1246 35.6563 29 35.6563Z" fill="#F0EFEB"/>
</svg>
