<svg width="14" height="14" viewBox="0 0 14 14" fill="none" xmlns="http://www.w3.org/2000/svg">
<path d="M6.665 13.6601C10.346 13.6601 13.33 10.6761 13.33 6.99508C13.33 3.3141 10.346 0.330078 6.665 0.330078C2.98402 0.330078 0 3.3141 0 6.99508C0 10.6761 2.98402 13.6601 6.665 13.6601Z" fill="#55ACEE"/>
<path d="M10.7475 5.12012C10.4619 5.24678 10.1547 5.33244 9.83247 5.37069C10.1615 5.17359 10.4139 4.86171 10.5331 4.48948C10.2253 4.67209 9.88415 4.80456 9.52142 4.87597C9.23081 4.56647 8.81676 4.37305 8.35827 4.37305C7.4786 4.37305 6.76515 5.0865 6.76515 5.96617C6.76515 6.09104 6.77929 6.21258 6.80662 6.32925C5.4826 6.26284 4.30864 5.62863 3.52283 4.66449C3.38572 4.89973 3.30707 5.17359 3.30707 5.4655C3.30707 6.01809 3.58853 6.50592 4.01577 6.79154C3.75474 6.78334 3.50893 6.7117 3.29424 6.59206C3.29412 6.59883 3.29412 6.6056 3.29412 6.61226C3.29412 7.38417 3.8435 8.028 4.57216 8.17425C4.43861 8.21085 4.29759 8.23021 4.15252 8.23021C4.04963 8.23021 3.94995 8.22035 3.85276 8.20182C4.05545 8.8346 4.64368 9.29522 5.34098 9.30817C4.79564 9.73553 4.1088 9.99014 3.3622 9.99014C3.23388 9.99014 3.10675 9.98266 2.98236 9.96781C3.68702 10.42 4.52463 10.6836 5.42426 10.6836C8.35459 10.6836 9.9571 8.25611 9.9571 6.15068C9.9571 6.08165 9.95555 6.01286 9.95246 5.94466C10.264 5.72011 10.534 5.4396 10.7475 5.12012Z" fill="#F1F2F2"/>
</svg>
