<svg width="71" height="71" viewBox="0 0 71 71" fill="none" xmlns="http://www.w3.org/2000/svg">
<path d="M35.5 0C15.9256 0 0 15.9256 0 35.5C0 55.0744 15.9256 71 35.5 71C55.0744 71 71 55.0744 71 35.5C71 15.9256 55.0744 0 35.5 0Z" fill="#303C42"/>
<path d="M35.5 2.95825C53.4435 2.95825 68.0417 17.5564 68.0417 35.5C68.0417 42.6427 65.7012 49.2337 61.7847 54.6063C61.4426 54.3837 61.1045 54.1807 60.7614 54.0039C54.8332 50.9605 45.6374 47.3333 35.5 47.3333C25.3625 47.3333 16.1667 50.9605 10.2371 54.0054C9.89503 54.1816 9.55737 54.384 9.2154 54.6063C5.29889 49.2335 2.95825 42.6427 2.95825 35.5C2.95825 17.5564 17.5564 2.95825 35.5 2.95825Z" fill="#E6E6E6"/>
<path d="M35.5 68.0417C25.7706 68.0417 17.0489 63.7279 11.0806 56.9379C11.2507 56.8348 11.4223 56.7228 11.5906 56.636C17.2284 53.7412 25.9533 50.2917 35.5 50.2917C45.0467 50.2917 53.7714 53.7412 59.4079 56.6346C59.577 56.722 59.749 56.8341 59.9196 56.9377C53.9511 63.7277 45.2293 68.0417 35.5 68.0417Z" fill="#4ED16B"/>
<path d="M35.5 44.375C45.3031 44.375 53.25 36.4281 53.25 26.625C53.25 16.8219 45.3031 8.875 35.5 8.875C25.6969 8.875 17.75 16.8219 17.75 26.625C17.75 36.4281 25.6969 44.375 35.5 44.375Z" fill="#303C42"/>
<path d="M48.9137 65.119C53.1386 63.1884 56.8869 60.3878 59.9195 56.9377C59.7489 56.8341 59.577 56.722 59.4078 56.6346C53.7713 53.7412 45.0465 50.2917 35.4999 50.2917C35.0429 50.2917 34.5984 50.3353 34.1454 50.3505L48.9137 65.119Z" fill="url(#paint0_linear)"/>
<path d="M35.5 41.4167C43.6692 41.4167 50.2917 34.7942 50.2917 26.625C50.2917 18.4557 43.6692 11.8333 35.5 11.8333C27.3307 11.8333 20.7083 18.4557 20.7083 26.625C20.7083 34.7942 27.3307 41.4167 35.5 41.4167Z" fill="#4ED16B"/>
<path opacity="0.1" d="M43.4298 14.1809C44.0089 15.7632 44.375 17.4487 44.375 19.2291C44.375 27.3851 37.7395 34.0208 29.5833 34.0208C26.6605 34.0208 23.9503 33.1418 21.6534 31.6731C23.7274 37.3394 29.124 41.4166 35.4998 41.4166C43.656 41.4166 50.2915 34.7809 50.2915 26.6249C50.2917 21.3914 47.5424 16.811 43.4298 14.1809Z" fill="black"/>
<path d="M35.5 0C15.9256 0 0 15.9256 0 35.5C0 55.0744 15.9256 71 35.5 71C55.0744 71 71 55.0744 71 35.5C71 15.9256 55.0744 0 35.5 0Z" fill="url(#paint1_linear)"/>
<defs>
<linearGradient id="paint0_linear" x1="38.9434" y1="45.5565" x2="55.1698" y2="61.7859" gradientUnits="userSpaceOnUse">
<stop stop-opacity="0.1"/>
<stop offset="1" stop-opacity="0"/>
</linearGradient>
<linearGradient id="paint1_linear" x1="3.32753" y1="20.5024" x2="67.673" y2="50.5034" gradientUnits="userSpaceOnUse">
<stop stop-color="white" stop-opacity="0.2"/>
<stop offset="1" stop-color="white" stop-opacity="0"/>
</linearGradient>
</defs>
</svg>
