<svg width="24" height="24" viewBox="0 0 24 24" fill="none" xmlns="http://www.w3.org/2000/svg">
<path d="M20 15.5C20 17.9762 17.7778 20 15 20C12.2487 20 10 17.9762 10 15.5C10 13.0238 12.2222 11 14.9735 11C17.7778 11 20 13.0238 20 15.5Z" fill="#FFB600"/>
<path d="M15 11C17.7513 11 20 13.0238 20 15.5C20 17.9762 17.7778 20 15 20C12.2487 20 10 17.9762 10 15.5" fill="#F7981D"/>
<path d="M15 11C17.7513 11 20 13.0238 20 15.5C20 17.9762 17.7778 20 15 20" fill="#FF8500"/>
<path d="M8.96021 11C6.22812 11.0238 4 13.0238 4 15.5C4 17.9762 6.22812 20 9.01326 20C10.313 20 11.4801 19.5476 12.382 18.8333C12.5676 18.6905 12.7268 18.5238 12.8859 18.3571H11.8515C11.7188 18.2143 11.5862 18.0476 11.4801 17.9048H13.2573C13.3634 17.7619 13.4695 17.5952 13.5491 17.4286H11.1883C11.1088 17.2857 11.0292 17.119 10.9761 16.9524H13.7347C13.8939 16.5 14 16.0238 14 15.5238C14 15.1905 13.9469 14.881 13.8939 14.5714H10.817C10.8435 14.4048 10.8966 14.2619 10.9496 14.0952H13.7082C13.6552 13.9286 13.5756 13.7619 13.496 13.619H11.1618C11.2414 13.4524 11.3475 13.3095 11.4536 13.1429H13.2308C13.1247 12.9762 12.992 12.8095 12.8329 12.6667H11.8515C12.0106 12.5 12.1698 12.3571 12.3554 12.2143C11.4801 11.4762 10.2865 11.0476 8.98674 11.0476C8.98674 11 8.98674 11 8.96021 11Z" fill="#FF5050"/>
<path d="M4 15.4761C4 17.9654 6.22812 20 9.01326 20C10.313 20 11.4801 19.5452 12.382 18.8271C12.5676 18.6835 12.7268 18.516 12.8859 18.3484H11.8515C11.7188 18.2048 11.5862 18.0372 11.4801 17.8936H13.2573C13.3634 17.75 13.4695 17.5824 13.5491 17.4149H11.1883C11.1088 17.2713 11.0292 17.1037 10.9761 16.9362H13.7347C13.8939 16.4814 14 16.0027 14 15.5C14 15.1649 13.9469 14.8537 13.8939 14.5426H10.817C10.8435 14.375 10.8966 14.2314 10.9496 14.0638H13.7082C13.6552 13.8963 13.5756 13.7287 13.496 13.5851H11.1618C11.2414 13.4176 11.3475 13.2739 11.4536 13.1064H13.2308C13.1247 12.9388 12.992 12.7713 12.8329 12.6277H11.8515C12.0106 12.4601 12.1698 12.3165 12.3554 12.1729C11.4801 11.4309 10.2865 11 8.98674 11H8.96021" fill="#E52836"/>
<path d="M8.06316 20C9.61053 20 11 19.5452 12.0737 18.8271C12.2947 18.6835 12.4842 18.516 12.6737 18.3484H11.4421C11.2842 18.2048 11.1263 18.0372 11 17.8936H13.1158C13.2421 17.75 13.3684 17.5824 13.4632 17.4149H10.6526C10.5579 17.2713 10.4632 17.1037 10.4 16.9362H13.6842C13.8737 16.4814 14 16.0027 14 15.5C14 15.1649 13.9368 14.8537 13.8737 14.5426H10.2105C10.2421 14.375 10.3053 14.2314 10.3684 14.0638H13.6526C13.5895 13.8963 13.4947 13.7287 13.4 13.5851H10.6211C10.7158 13.4176 10.8421 13.2739 10.9684 13.1064H13.0842C12.9579 12.9388 12.8 12.7713 12.6105 12.6277H11.4421C11.6316 12.4601 11.8211 12.3165 12.0421 12.1729C11 11.4309 9.57895 11 8.03158 11H8" fill="#CB2026"/>
<path d="M10.5307 16.7488L10.6072 16.3151C10.5817 16.3151 10.5307 16.3406 10.4796 16.3406C10.3011 16.3406 10.2756 16.2386 10.3011 16.1876L10.4541 15.2947H10.7347L10.8113 14.81H10.5562L10.6072 14.5039H10.097C10.097 14.5039 9.79086 16.1876 9.79086 16.3917C9.79086 16.6978 9.96943 16.8253 10.199 16.8253C10.3521 16.8253 10.4796 16.7743 10.5307 16.7488Z" fill="white"/>
<path d="M10.7092 15.9324C10.7092 16.6467 11.1939 16.8253 11.6021 16.8253C11.9847 16.8253 12.1378 16.7488 12.1378 16.7488L12.2398 16.2641C12.2398 16.2641 11.9592 16.3916 11.7041 16.3916C11.1429 16.3916 11.2449 15.9835 11.2449 15.9835H12.2909C12.2909 15.9835 12.3674 15.6518 12.3674 15.5243C12.3674 15.1926 12.1888 14.7845 11.6276 14.7845C11.0919 14.7335 10.7092 15.2947 10.7092 15.9324ZM11.6021 15.1926C11.8827 15.1926 11.8317 15.5243 11.8317 15.5498H11.2705C11.2705 15.5243 11.3215 15.1926 11.6021 15.1926Z" fill="white"/>
<path d="M14.8419 16.7489L14.9439 16.1877C14.9439 16.1877 14.6888 16.3152 14.5102 16.3152C14.1531 16.3152 14 16.0346 14 15.7285C14 15.1163 14.3062 14.7846 14.6633 14.7846C14.9184 14.7846 15.1225 14.9377 15.1225 14.9377L15.199 14.402C15.199 14.402 14.8929 14.2744 14.6123 14.2744C14.0256 14.2744 13.4388 14.7846 13.4388 15.754C13.4388 16.3918 13.7449 16.8254 14.3572 16.8254C14.5613 16.8254 14.8419 16.7489 14.8419 16.7489Z" fill="white"/>
<path d="M7.72454 14.7334C7.36739 14.7334 7.11229 14.8354 7.11229 14.8354L7.03576 15.2691C7.03576 15.2691 7.26535 15.1671 7.59699 15.1671C7.77556 15.1671 7.92862 15.1926 7.92862 15.3456C7.92862 15.4477 7.90311 15.4732 7.90311 15.4732C7.90311 15.4732 7.75005 15.4732 7.67352 15.4732C7.23984 15.4732 6.75515 15.6518 6.75515 16.2385C6.75515 16.6977 7.06127 16.7997 7.23984 16.7997C7.59699 16.7997 7.75005 16.5701 7.77556 16.5701L7.75005 16.7742H8.20923L8.41331 15.3712C8.41331 14.7589 7.90311 14.7334 7.72454 14.7334ZM7.82658 15.8814C7.82658 15.9579 7.77556 16.3661 7.46944 16.3661C7.31637 16.3661 7.26535 16.2385 7.26535 16.162C7.26535 16.0344 7.34188 15.8558 7.72454 15.8558C7.80107 15.8814 7.82658 15.8814 7.82658 15.8814Z" fill="white"/>
<path d="M8.89801 16.7998C9.02556 16.7998 9.66331 16.8254 9.66331 16.1366C9.66331 15.4988 9.05107 15.6264 9.05107 15.3713C9.05107 15.2437 9.15311 15.1927 9.33168 15.1927C9.40821 15.1927 9.68882 15.2182 9.68882 15.2182L9.76535 14.759C9.76535 14.759 9.58678 14.708 9.28066 14.708C8.89801 14.708 8.51535 14.8611 8.51535 15.3713C8.51535 15.958 9.15311 15.907 9.15311 16.1366C9.15311 16.2896 8.97454 16.3152 8.84699 16.3152C8.61739 16.3152 8.3878 16.2386 8.3878 16.2386L8.31127 16.6978C8.33678 16.7488 8.46433 16.7998 8.89801 16.7998Z" fill="white"/>
<path d="M19.0766 14.3252L18.9745 15.014C18.9745 15.014 18.7704 14.7589 18.4898 14.7589C18.0307 14.7589 17.6225 15.3201 17.6225 15.9834C17.6225 16.3915 17.8266 16.8252 18.2602 16.8252C18.5664 16.8252 18.7449 16.6211 18.7449 16.6211L18.7194 16.7997H19.2296L19.6123 14.3507L19.0766 14.3252ZM18.847 15.6772C18.847 15.9578 18.7194 16.315 18.4388 16.315C18.2602 16.315 18.1582 16.1619 18.1582 15.9068C18.1582 15.4987 18.3368 15.2436 18.5664 15.2436C18.7449 15.2436 18.847 15.3711 18.847 15.6772Z" fill="white"/>
<path d="M4.94392 16.7742L5.25004 14.9374L5.30107 16.7742H5.65821L6.32147 14.9374L6.04086 16.7742H6.57658L6.98474 14.3252H6.1429L5.6327 15.8303L5.60719 14.3252H4.86739L4.45923 16.7742H4.94392Z" fill="white"/>
<path d="M12.8521 16.7745C13.0051 15.9326 13.0307 15.2439 13.3878 15.3714C13.4388 15.0398 13.5154 14.9122 13.5664 14.7847C13.5664 14.7847 13.5409 14.7847 13.4643 14.7847C13.2347 14.7847 13.0562 15.0908 13.0562 15.0908L13.1072 14.8102H12.6225L12.2909 16.8H12.8521V16.7745Z" fill="white"/>
<path d="M16.0153 14.7334C15.6582 14.7334 15.4031 14.8354 15.4031 14.8354L15.3266 15.2691C15.3266 15.2691 15.5562 15.1671 15.8878 15.1671C16.0664 15.1671 16.2194 15.1926 16.2194 15.3456C16.2194 15.4477 16.1939 15.4732 16.1939 15.4732C16.1939 15.4732 16.0409 15.4732 15.9643 15.4732C15.5307 15.4732 15.046 15.6518 15.046 16.2385C15.046 16.6977 15.3521 16.7997 15.5307 16.7997C15.8878 16.7997 16.0409 16.5701 16.0664 16.5701L16.0409 16.7742H16.5L16.7041 15.3712C16.7296 14.7589 16.1939 14.7334 16.0153 14.7334ZM16.1429 15.8814C16.1429 15.9579 16.0919 16.3661 15.7858 16.3661C15.6327 16.3661 15.5817 16.2385 15.5817 16.162C15.5817 16.0344 15.6582 15.8558 16.0409 15.8558C16.1174 15.8814 16.1174 15.8814 16.1429 15.8814Z" fill="white"/>
<path d="M17.1378 16.7745C17.2909 15.9326 17.3164 15.2439 17.6735 15.3714C17.7245 15.0398 17.8011 14.9122 17.8521 14.7847C17.8521 14.7847 17.8266 14.7847 17.75 14.7847C17.5205 14.7847 17.3419 15.0908 17.3419 15.0908L17.3929 14.8102H16.9082L16.5766 16.8H17.1378V16.7745Z" fill="white"/>
<path d="M9.73985 16.3917C9.73985 16.6978 9.91842 16.8253 10.148 16.8253C10.3266 16.8253 10.4796 16.7743 10.5307 16.7488L10.6072 16.3151C10.5817 16.3151 10.5307 16.3406 10.4796 16.3406C10.3011 16.3406 10.2756 16.2386 10.3011 16.1876L10.4541 15.2947H10.7347L10.8113 14.81H10.5562L10.6072 14.5039" fill="#DCE5E5"/>
<path d="M10.9643 15.9324C10.9643 16.6467 11.1939 16.8253 11.6021 16.8253C11.9847 16.8253 12.1378 16.7488 12.1378 16.7488L12.2398 16.2641C12.2398 16.2641 11.9592 16.3916 11.7041 16.3916C11.1429 16.3916 11.2449 15.9835 11.2449 15.9835H12.2909C12.2909 15.9835 12.3674 15.6518 12.3674 15.5243C12.3674 15.1926 12.1888 14.7845 11.6276 14.7845C11.0919 14.7335 10.9643 15.2947 10.9643 15.9324ZM11.6021 15.1926C11.8827 15.1926 11.9337 15.5243 11.9337 15.5498H11.2704C11.2704 15.5243 11.3215 15.1926 11.6021 15.1926Z" fill="#DCE5E5"/>
<path d="M14.8419 16.7489L14.9439 16.1877C14.9439 16.1877 14.6888 16.3152 14.5103 16.3152C14.1531 16.3152 14 16.0346 14 15.7285C14 15.1163 14.3062 14.7846 14.6633 14.7846C14.9184 14.7846 15.1225 14.9377 15.1225 14.9377L15.199 14.402C15.199 14.402 14.8929 14.2744 14.6123 14.2744C14.0256 14.2744 13.6939 14.7846 13.6939 15.754C13.6939 16.3918 13.7449 16.8254 14.3572 16.8254C14.5613 16.8254 14.8419 16.7489 14.8419 16.7489Z" fill="#DCE5E5"/>
<path d="M7.03576 15.2949C7.03576 15.2949 7.26535 15.1928 7.59699 15.1928C7.77556 15.1928 7.92862 15.2183 7.92862 15.3714C7.92862 15.4734 7.90311 15.499 7.90311 15.499C7.90311 15.499 7.75005 15.499 7.67352 15.499C7.23984 15.499 6.75515 15.6775 6.75515 16.2643C6.75515 16.7234 7.06127 16.8255 7.23984 16.8255C7.59699 16.8255 7.75005 16.5959 7.77556 16.5959L7.75005 16.8H8.20923L8.41331 15.3969C8.41331 14.8102 7.90311 14.7847 7.69903 14.7847L7.03576 15.2949ZM8.08168 15.8816C8.08168 15.9581 7.77556 16.3663 7.46944 16.3663C7.31637 16.3663 7.26535 16.2387 7.26535 16.1622C7.26535 16.0347 7.34188 15.8561 7.72454 15.8561C7.80107 15.8816 8.08168 15.8816 8.08168 15.8816Z" fill="#DCE5E5"/>
<path d="M8.33678 16.7488C8.33678 16.7488 8.48985 16.7998 8.92352 16.7998C9.05107 16.7998 9.68882 16.8254 9.68882 16.1366C9.68882 15.4988 9.07658 15.6264 9.07658 15.3713C9.07658 15.2437 9.17862 15.1927 9.35719 15.1927C9.43372 15.1927 9.71433 15.2182 9.71433 15.2182L9.79087 14.759C9.79087 14.759 9.61229 14.708 9.30617 14.708C8.92352 14.708 8.79597 14.8611 8.79597 15.3713C8.79597 15.958 9.17862 15.907 9.17862 16.1366C9.17862 16.2896 9.00005 16.3152 8.8725 16.3152" fill="#DCE5E5"/>
<path d="M18.9745 15.0143C18.9745 15.0143 18.7704 14.7592 18.4898 14.7592C18.0307 14.7592 17.8776 15.3205 17.8776 15.9837C17.8776 16.3919 17.8266 16.8256 18.2602 16.8256C18.5664 16.8256 18.7449 16.6215 18.7449 16.6215L18.7194 16.8001H19.2296L19.6123 14.3511L18.9745 15.0143ZM18.949 15.6776C18.949 15.9582 18.7194 16.3154 18.4388 16.3154C18.2602 16.3154 18.1582 16.1623 18.1582 15.9072C18.1582 15.499 18.3368 15.2439 18.5664 15.2439C18.7449 15.2439 18.949 15.3715 18.949 15.6776Z" fill="#DCE5E5"/>
<path d="M4.94392 16.7742L5.25004 14.9374L5.30107 16.7742H5.65821L6.32147 14.9374L6.04086 16.7742H6.57658L6.98474 14.3252H6.34698L5.6327 15.8303L5.60719 14.3252H5.32658L4.45923 16.7742H4.94392Z" fill="#DCE5E5"/>
<path d="M12.3164 16.7745H12.8521C13.0052 15.9326 13.0307 15.2439 13.3878 15.3714C13.4388 15.0398 13.5154 14.9122 13.5664 14.7847C13.5664 14.7847 13.5409 14.7847 13.4643 14.7847C13.2347 14.7847 13.0562 15.0908 13.0562 15.0908L13.1072 14.8102" fill="#DCE5E5"/>
<path d="M15.3266 15.2949C15.3266 15.2949 15.5562 15.1928 15.8878 15.1928C16.0664 15.1928 16.2194 15.2183 16.2194 15.3714C16.2194 15.4734 16.1939 15.499 16.1939 15.499C16.1939 15.499 16.0409 15.499 15.9643 15.499C15.5307 15.499 15.046 15.6775 15.046 16.2643C15.046 16.7234 15.3521 16.8255 15.5307 16.8255C15.8878 16.8255 16.0409 16.5959 16.0664 16.5959L16.0409 16.8H16.5L16.7041 15.3969C16.7041 14.8102 16.1939 14.7847 15.9898 14.7847L15.3266 15.2949ZM16.3725 15.8816C16.3725 15.9581 16.0664 16.3663 15.7602 16.3663C15.6072 16.3663 15.5562 16.2387 15.5562 16.1622C15.5562 16.0347 15.6327 15.8561 16.0153 15.8561C16.1174 15.8816 16.3725 15.8816 16.3725 15.8816Z" fill="#DCE5E5"/>
<path d="M16.6021 16.7745H17.1378C17.2909 15.9326 17.3164 15.2439 17.6735 15.3714C17.7245 15.0398 17.8011 14.9122 17.8521 14.7847C17.8521 14.7847 17.8266 14.7847 17.75 14.7847C17.5205 14.7847 17.3419 15.0908 17.3419 15.0908L17.3929 14.8102" fill="#DCE5E5"/>
<path d="M10 9L11.1707 5H13L11.8659 9H10Z" fill="#3C58BF"/>
<path d="M10 9L11.5 5H13L11.8659 9H10Z" fill="#293688"/>
<path d="M16 5.16842C15.7386 5.08421 15.3203 5 14.7974 5C13.4902 5 12.549 5.52632 12.549 6.28421C12.549 6.85263 13.2026 7.14737 13.7255 7.33684C14.2484 7.52632 14.4052 7.65263 14.4052 7.82105C14.4052 8.07368 13.9869 8.2 13.6209 8.2C13.098 8.2 12.8105 8.13684 12.366 7.98947L12.183 7.92632L12 8.78947C12.3137 8.89474 12.8889 9 13.4902 9C14.8758 9 15.7908 8.47368 15.7908 7.67368C15.7908 7.23158 15.451 6.89474 14.6667 6.62105C14.1961 6.43158 13.9085 6.32632 13.9085 6.13684C13.9085 5.96842 14.1438 5.8 14.6667 5.8C15.1111 5.8 15.4248 5.86316 15.6601 5.94737L15.7908 5.98947L16 5.16842Z" fill="#3C58BF"/>
<path d="M16 5.16842C15.7386 5.08421 15.3203 5 14.7974 5C13.4902 5 12.7843 5.52632 12.7843 6.28421C12.7843 6.85263 13.2026 7.14737 13.7255 7.33684C14.2484 7.52632 14.4052 7.65263 14.4052 7.82105C14.4052 8.07368 13.9869 8.2 13.6209 8.2C13.098 8.2 12.8105 8.13684 12.366 7.98947L12.183 7.92632L12 8.78947C12.3137 8.89474 12.8889 9 13.4902 9C14.8758 9 15.7908 8.47368 15.7908 7.67368C15.7908 7.23158 15.451 6.89474 14.6667 6.62105C14.1961 6.43158 13.9085 6.32632 13.9085 6.13684C13.9085 5.96842 14.1438 5.8 14.6667 5.8C15.1111 5.8 15.4248 5.86316 15.6601 5.94737L15.7908 5.98947L16 5.16842Z" fill="#293688"/>
<path d="M17.7747 5C17.4451 5 17.1978 5.02222 17.0604 5.28889L15 9H16.4835L16.7582 8.33333H18.5165L18.6813 9H20L18.8462 5H17.7747ZM17.1429 7.66667C17.2253 7.46667 17.6923 6.48889 17.6923 6.48889C17.6923 6.48889 17.8022 6.24444 17.8846 6.08889L17.967 6.46667C17.967 6.46667 18.2418 7.46667 18.2967 7.68889H17.1429V7.66667Z" fill="#3C58BF"/>
<path d="M18.1044 5C17.7747 5 17.5275 5.02222 17.3901 5.28889L15 9H16.4835L16.7582 8.33333H18.5165L18.6813 9H20L18.8462 5H18.1044ZM17.1429 7.66667C17.2527 7.44444 17.6923 6.48889 17.6923 6.48889C17.6923 6.48889 17.8022 6.24444 17.8846 6.08889L17.967 6.46667C17.967 6.46667 18.2418 7.46667 18.2967 7.68889H17.1429V7.66667Z" fill="#293688"/>
<path d="M7.66667 7.77778L7.55556 7.2C7.35556 6.53333 6.71111 5.8 6 5.44444L7 9H8.2L10 5H8.8L7.66667 7.77778Z" fill="#3C58BF"/>
<path d="M7.66667 7.77778L7.55556 7.2C7.35556 6.53333 6.71111 5.8 6 5.44444L7 9H8.2L10 5H9.02222L7.66667 7.77778Z" fill="#293688"/>
<path d="M4 5L4.20149 5.06C5.63433 5.51 6.6194 6.65 7 8L6.59702 5.45C6.52985 5.09 6.32836 5 6.08209 5H4Z" fill="#FFBC00"/>
<path d="M4 5C5.43284 5.45455 6.6194 6.63636 7 8L6.6194 5.84849C6.55224 5.48485 6.32836 5.27273 6.08209 5.27273L4 5Z" fill="#F7981D"/>
<path d="M4 5C5.43284 5.45455 6.6194 6.63636 7 8L6.73134 6.81818C6.66418 6.45455 6.57463 6.09091 6.26119 5.93939L4 5Z" fill="#ED7C00"/>
<path d="M8.82147 8.21411L7.95412 7.34676L7.54596 8.31615L7.44392 7.67839C7.21433 6.91309 6.47453 6.07125 5.6582 5.66309L6.80616 9.74472H8.18371L8.82147 8.21411Z" fill="#051244"/>
<path d="M11.1939 9.74452L10.097 8.62207L9.8929 9.74452H11.1939Z" fill="#051244"/>
<path d="M14.1276 8.16309C14.2296 8.26513 14.2806 8.34166 14.2551 8.4437C14.2551 8.74982 13.847 8.90288 13.4898 8.90288C12.9796 8.90288 12.699 8.82635 12.2653 8.64778L12.0868 8.57125L11.9082 9.61717C12.2143 9.74472 12.7755 9.87227 13.3623 9.87227C14.1786 9.87227 14.8419 9.64268 15.2245 9.23452L14.1276 8.16309Z" fill="#051244"/>
<path d="M15.6072 9.74467H16.8062L17.0613 8.97936H18.6939L18.847 9.74467H20.0715L19.6378 7.88242L18.1072 6.40283L18.1837 6.81099C18.1837 6.81099 18.4388 7.95895 18.4898 8.21406H17.4184C17.5204 7.95895 17.9286 6.86202 17.9286 6.86202C17.9286 6.86202 18.0306 6.5814 18.1072 6.40283" fill="#051244"/>
<circle cx="12" cy="12" r="11.5" stroke="black"/>
<circle cx="12" cy="12" r="11.5" stroke="black"/>
</svg>
